<svg width="73" height="61" viewBox="0 0 73 61" fill="none" xmlns="http://www.w3.org/2000/svg">
<path d="M26.8505 24.8793C26.8505 26.6449 26.5224 28.184 25.8662 29.4965C25.2255 30.7934 24.3427 31.8793 23.2177 32.7543C22.1083 33.6293 20.7958 34.2855 19.2802 34.723C17.7802 35.1449 16.1708 35.3559 14.4521 35.3559H14.3115C13.999 35.3559 13.6552 35.348 13.2802 35.3324C12.9208 35.3168 12.5693 35.3012 12.2255 35.2855C11.8974 35.2543 11.6083 35.2309 11.3583 35.2152C11.124 35.1996 10.9755 35.184 10.913 35.1684L10.913 44.098C10.913 44.3324 10.9912 44.559 11.1474 44.7777C11.3193 44.9965 11.5771 45.1215 11.9208 45.1527L15.0849 45.3402V47.4027H2.47553L2.47553 45.3402L5.00678 45.1527C5.35053 45.1215 5.60834 44.9965 5.78021 44.7777C5.96771 44.559 6.06146 44.3324 6.06146 44.098L6.06146 18.5043C6.06146 18.2699 5.96771 18.0434 5.78021 17.8246C5.60834 17.6059 5.35053 17.4809 5.00678 17.4496L2.12396 17.2621V15.1996L13.6083 15.1996C15.874 15.1996 17.8349 15.3715 19.4912 15.7152C21.163 16.059 22.538 16.6137 23.6162 17.3793C24.7099 18.1449 25.5224 19.1449 26.0537 20.3793C26.5849 21.598 26.8505 23.098 26.8505 24.8793ZM21.8583 24.9496C21.8583 23.7777 21.7021 22.7387 21.3896 21.8324C21.0771 20.9105 20.5771 20.1371 19.8896 19.5121C19.2177 18.8715 18.3427 18.3871 17.2646 18.059C16.1865 17.7152 14.8818 17.5434 13.3505 17.5434C13.1318 17.5434 12.8818 17.5512 12.6005 17.5668C12.3193 17.5668 12.0537 17.5668 11.8037 17.5668C11.5224 17.5824 11.2255 17.5902 10.913 17.5902L10.913 32.7074C10.9443 32.7074 11.0615 32.723 11.2646 32.7543C11.4677 32.7699 11.7021 32.8012 11.9677 32.848C12.2333 32.8793 12.5146 32.9105 12.8115 32.9418C13.1083 32.9574 13.374 32.9652 13.6083 32.9652H13.749C14.9833 32.9652 16.1005 32.809 17.1005 32.4965C18.1005 32.1684 18.9521 31.6762 19.6552 31.0199C20.3583 30.3637 20.8974 29.5355 21.2724 28.5355C21.663 27.5199 21.8583 26.3246 21.8583 24.9496ZM45.1318 29.1684C44.8193 28.809 44.4599 28.5043 44.0537 28.2543C43.6474 27.9887 43.1474 27.8559 42.5537 27.8559C41.7724 27.8559 40.9833 28.1215 40.1865 28.6527C39.3896 29.1684 38.5771 29.8949 37.749 30.8324L37.749 44.3324C37.749 44.6293 37.8427 44.8793 38.0302 45.0824C38.2177 45.2699 38.4599 45.3715 38.7568 45.3871L41.9208 45.5277V47.4027L29.9208 47.4027V45.5746L32.288 45.3871C32.5693 45.3559 32.8037 45.2465 32.9912 45.059C33.1943 44.8715 33.2958 44.6293 33.2958 44.3324L33.2958 27.6684H29.8271V26.098L35.7802 24.2699H37.749V28.5355C38.0927 28.1605 38.5068 27.6996 38.9912 27.1527C39.4912 26.5902 40.0224 26.0512 40.5849 25.5355C41.1474 25.0199 41.7255 24.5824 42.3193 24.223C42.9287 23.8637 43.5146 23.684 44.0771 23.684C44.3271 23.684 44.5927 23.7074 44.874 23.7543C45.1552 23.8012 45.4287 23.8637 45.6943 23.9418C45.9599 24.0043 46.2021 24.0824 46.4208 24.1762C46.6552 24.2543 46.8505 24.3324 47.0068 24.4105V29.1684H45.1318ZM70.6552 38.3793C70.6552 39.598 70.413 40.7934 69.9287 41.9652C69.4599 43.1371 68.7099 44.184 67.6787 45.1059C66.6474 46.0277 65.3271 46.7699 63.7177 47.3324C62.1083 47.8949 60.1787 48.1762 57.9287 48.1762C56.6162 48.1762 55.4365 48.0824 54.3896 47.8949C53.3583 47.7074 52.4677 47.5043 51.7177 47.2855C50.8583 47.0199 50.0849 46.723 49.3974 46.3949V37.8871H52.4208L53.0537 43.3246C53.0849 43.5121 53.1787 43.7152 53.3349 43.934C53.5068 44.1527 53.6787 44.3012 53.8505 44.3793L54.249 44.5902C54.4833 44.6996 54.8037 44.8246 55.2099 44.9652C55.6162 45.0902 56.1083 45.2074 56.6865 45.3168C57.2802 45.4262 57.9521 45.4809 58.7021 45.4809C59.7177 45.4809 60.6552 45.3559 61.5146 45.1059C62.3896 44.8402 63.1396 44.4652 63.7646 43.9809C64.3896 43.4965 64.874 42.9027 65.2177 42.1996C65.5771 41.4965 65.7568 40.6996 65.7568 39.809C65.7568 38.8402 65.4755 37.9965 64.913 37.2777C64.3662 36.5434 63.6708 35.8949 62.8271 35.3324C61.999 34.7543 61.0927 34.2387 60.1083 33.7855C59.124 33.3324 58.1943 32.8949 57.3193 32.473C56.3349 32.0043 55.3896 31.5199 54.4833 31.0199C53.5927 30.5199 52.8037 29.9418 52.1162 29.2855C51.4443 28.6293 50.9052 27.8637 50.499 26.9887C50.1083 26.098 49.913 25.0434 49.913 23.8246C49.913 22.4027 50.1943 21.1137 50.7568 19.9574C51.3193 18.8012 52.0927 17.8168 53.0771 17.0043C54.0771 16.1762 55.249 15.5434 56.5927 15.1059C57.9521 14.6527 59.4208 14.4262 60.999 14.4262C61.8583 14.4262 62.663 14.473 63.413 14.5668C64.163 14.6605 64.8662 14.7855 65.5224 14.9418C66.1943 15.0824 66.8193 15.2465 67.3974 15.434C67.9755 15.6059 68.5224 15.7699 69.038 15.9262L69.4599 16.0668V23.5434H66.7177L65.9912 18.9496C65.9599 18.7309 65.8583 18.5746 65.6865 18.4809C65.5302 18.3715 65.3818 18.2465 65.2412 18.1059C65.1787 18.059 65.0537 17.9809 64.8662 17.8715C64.6787 17.7465 64.413 17.6215 64.0693 17.4965C63.7412 17.3715 63.3271 17.2621 62.8271 17.1684C62.3271 17.0746 61.7412 17.0277 61.0693 17.0277C60.1005 17.0277 59.2333 17.1684 58.4677 17.4496C57.7021 17.7309 57.0537 18.1293 56.5224 18.6449C55.9912 19.1449 55.5771 19.7387 55.2802 20.4262C54.999 21.1137 54.8583 21.8637 54.8583 22.6762C54.8583 23.4105 54.999 24.0824 55.2802 24.6918C55.5771 25.2855 56.0068 25.8402 56.5693 26.3559C57.1474 26.8559 57.8505 27.3246 58.6787 27.7621C59.5068 28.1996 60.4599 28.6215 61.538 29.0277C62.9912 29.5746 64.2802 30.1449 65.4052 30.7387C66.5458 31.3324 67.499 31.9965 68.2646 32.7309C69.0458 33.4652 69.6396 34.2934 70.0458 35.2152C70.4521 36.1215 70.6552 37.1762 70.6552 38.3793Z" fill="#3578E5"/>
</svg>
