<svg width="715" height="644" viewBox="0 0 715 644" fill="none" xmlns="http://www.w3.org/2000/svg">
<path d="M478.307 321.721C478.307 409.864 464.21 489.319 441.683 546.462C430.411 575.056 417.175 597.688 402.861 613.047C388.558 628.394 373.724 635.943 358.981 635.943C344.239 635.943 329.405 628.394 315.102 613.047C300.787 597.688 287.552 575.056 276.279 546.462C253.753 489.319 239.656 409.864 239.656 321.721C239.656 233.579 253.753 154.124 276.279 96.9806C287.552 68.3865 300.787 45.7542 315.102 30.396C329.405 15.0489 344.239 7.5 358.981 7.5C373.724 7.5 388.558 15.0489 402.861 30.396C417.175 45.7542 430.411 68.3865 441.683 96.9806C464.21 154.124 478.307 233.579 478.307 321.721Z" stroke="#767272" stroke-width="15"/>
<path d="M418.509 223.433C498.652 267.542 563.864 318.964 604.577 366.207C624.954 389.853 638.922 412.138 645.727 431.661C652.54 451.209 651.893 467.059 644.682 478.966C637.471 490.873 623.395 499.332 602.231 503.481C581.092 507.625 553.862 507.236 522.193 502.236C458.917 492.245 379.597 464.119 299.454 420.01C219.311 375.901 154.099 324.479 113.386 277.236C93.0085 253.59 79.0403 231.305 72.2357 211.781C65.4227 192.234 66.0695 176.384 73.2808 164.477C80.4921 152.57 94.5679 144.111 115.732 139.962C136.871 135.818 164.1 136.207 195.77 141.207C259.045 151.197 338.366 179.324 418.509 223.433Z" stroke="#767272" stroke-width="15"/>
<path d="M296.156 224.653C376.299 180.544 455.62 152.418 518.895 142.427C550.565 137.427 577.795 137.038 598.933 141.182C620.098 145.331 634.173 153.79 641.385 165.697C648.596 177.604 649.243 193.454 642.43 213.002C635.625 232.525 621.657 254.81 601.28 278.456C560.566 325.699 495.354 377.121 415.212 421.23C335.069 465.339 255.748 493.466 192.473 503.456C160.803 508.456 133.573 508.845 112.435 504.701C91.2705 500.552 77.1948 492.093 69.9835 480.186C62.7721 468.279 62.1254 452.429 68.9383 432.882C75.743 413.358 89.7111 391.073 110.088 367.427C150.802 320.184 216.014 268.762 296.156 224.653Z" stroke="#767272" stroke-width="15"/>
<path d="M663.172 159.836C663.172 177.994 647.624 193.32 627.68 193.32C607.737 193.32 592.188 177.994 592.188 159.836C592.188 141.678 607.737 126.352 627.68 126.352C647.624 126.352 663.172 141.678 663.172 159.836Z" fill="white" stroke="#3578E5" stroke-width="15"/>
<path d="M108.578 475.41C108.578 493.568 93.0296 508.893 73.0859 508.893C53.1422 508.893 37.5941 493.568 37.5941 475.41C37.5941 457.251 53.1422 441.926 73.0859 441.926C93.0296 441.926 108.578 457.251 108.578 475.41Z" fill="white" stroke="#3578E5" stroke-width="15"/>
</svg>
