<svg width="1103" height="761" viewBox="0 0 1103 761" fill="none" xmlns="http://www.w3.org/2000/svg">
<path d="M612.684 693.425L585.565 658.629M612.684 693.425L586.672 728.841M612.684 693.425H660.282M585.565 658.629H558.445M585.565 658.629L603.276 635.018M586.672 728.841H558.445M586.672 728.841L603.276 751.831" stroke="black" stroke-width="5"/>
<path d="M596.027 635.639C596.027 639.88 599.077 643.217 602.722 643.217C606.367 643.217 609.417 639.88 609.417 635.639C609.417 631.398 606.367 628.062 602.722 628.062C599.077 628.062 596.027 631.398 596.027 635.639Z" fill="#FEFEFE" stroke="black"/>
<path d="M551.75 659.25C551.75 663.491 554.8 666.828 558.445 666.828C562.09 666.828 565.14 663.491 565.14 659.25C565.14 655.009 562.09 651.673 558.445 651.673C554.8 651.673 551.75 655.009 551.75 659.25Z" fill="#FEFEFE" stroke="black"/>
<path d="M596.027 752.453C596.027 756.694 599.077 760.03 602.722 760.03C606.367 760.03 609.417 756.694 609.417 752.453C609.417 748.212 606.367 744.875 602.722 744.875C599.077 744.875 596.027 748.212 596.027 752.453Z" fill="#FEFEFE" stroke="black"/>
<path d="M551.75 728.841C551.75 733.082 554.8 736.419 558.445 736.419C562.09 736.419 565.14 733.082 565.14 728.841C565.14 724.601 562.09 721.264 558.445 721.264C554.8 721.264 551.75 724.601 551.75 728.841Z" fill="#FEFEFE" stroke="black"/>
<path d="M576.102 728.22C576.102 734.863 580.887 740.147 586.672 740.147C592.456 740.147 597.241 734.863 597.241 728.22C597.241 721.577 592.456 716.293 586.672 716.293C580.887 716.293 576.102 721.577 576.102 728.22Z" fill="#578EE1" stroke="black"/>
<path d="M576.102 658.629C576.102 665.272 580.887 670.556 586.672 670.556C592.456 670.556 597.241 665.272 597.241 658.629C597.241 651.986 592.456 646.702 586.672 646.702C580.887 646.702 576.102 651.986 576.102 658.629Z" fill="#578EE1" stroke="black"/>
<path d="M600.455 694.046C600.455 701.032 605.487 706.594 611.578 706.594C617.668 706.594 622.7 701.032 622.7 694.046C622.7 687.06 617.668 681.498 611.578 681.498C605.487 681.498 600.455 687.06 600.455 694.046Z" fill="#515151" stroke="black"/>
<path d="M649.16 694.046C649.16 701.032 654.192 706.594 660.282 706.594C666.373 706.594 671.405 701.032 671.405 694.046C671.405 687.06 666.373 681.498 660.282 681.498C654.192 681.498 649.16 687.06 649.16 694.046Z" fill="#E91010" stroke="black"/>
<path d="M673.566 572.883L700.685 538.088M673.566 572.883L699.578 608.3M673.566 572.883H625.968M700.685 538.088H727.805M700.685 538.088L682.974 514.476M699.578 608.3H727.805M699.578 608.3L682.974 631.29" stroke="black" stroke-width="5"/>
<path d="M690.223 515.098C690.223 519.339 687.173 522.675 683.528 522.675C679.883 522.675 676.833 519.339 676.833 515.098C676.833 510.857 679.883 507.52 683.528 507.52C687.173 507.52 690.223 510.857 690.223 515.098Z" fill="#FEFEFE" stroke="black"/>
<path d="M734.5 538.709C734.5 542.95 731.45 546.286 727.805 546.286C724.16 546.286 721.11 542.95 721.11 538.709C721.11 534.468 724.16 531.131 727.805 531.131C731.45 531.131 734.5 534.468 734.5 538.709Z" fill="#FEFEFE" stroke="black"/>
<path d="M690.223 631.911C690.223 636.152 687.173 639.489 683.528 639.489C679.883 639.489 676.833 636.152 676.833 631.911C676.833 627.67 679.883 624.334 683.528 624.334C687.173 624.334 690.223 627.67 690.223 631.911Z" fill="#FEFEFE" stroke="black"/>
<path d="M734.5 608.3C734.5 612.541 731.45 615.877 727.805 615.877C724.16 615.877 721.11 612.541 721.11 608.3C721.11 604.059 724.16 600.722 727.805 600.722C731.45 600.722 734.5 604.059 734.5 608.3Z" fill="#FEFEFE" stroke="black"/>
<path d="M710.148 607.679C710.148 614.322 705.363 619.606 699.578 619.606C693.794 619.606 689.009 614.322 689.009 607.679C689.009 601.036 693.794 595.752 699.578 595.752C705.363 595.752 710.148 601.036 710.148 607.679Z" fill="#578EE1" stroke="black"/>
<path d="M710.148 538.088C710.148 544.731 705.363 550.015 699.578 550.015C693.794 550.015 689.009 544.731 689.009 538.088C689.009 531.445 693.794 526.161 699.578 526.161C705.363 526.161 710.148 531.445 710.148 538.088Z" fill="#578EE1" stroke="black"/>
<path d="M685.795 573.504C685.795 580.491 680.763 586.053 674.672 586.053C668.582 586.053 663.55 580.491 663.55 573.504C663.55 566.518 668.582 560.956 674.672 560.956C680.763 560.956 685.795 566.518 685.795 573.504Z" fill="#515151" stroke="black"/>
<path d="M637.09 573.504C637.09 580.491 632.058 586.053 625.968 586.053C619.877 586.053 614.845 580.491 614.845 573.504C614.845 566.518 619.877 560.956 625.968 560.956C632.058 560.956 637.09 566.518 637.09 573.504Z" fill="#E91010" stroke="black"/>
<path d="M428.934 693.425L401.815 658.629M428.934 693.425L402.922 728.841M428.934 693.425H476.532M401.815 658.629H374.695M401.815 658.629L419.526 635.018M402.922 728.841H374.695M402.922 728.841L419.526 751.831" stroke="black" stroke-width="5"/>
<path d="M412.277 635.639C412.277 639.88 415.327 643.217 418.972 643.217C422.617 643.217 425.667 639.88 425.667 635.639C425.667 631.398 422.617 628.062 418.972 628.062C415.327 628.062 412.277 631.398 412.277 635.639Z" fill="#FEFEFE" stroke="black"/>
<path d="M368 659.25C368 663.491 371.05 666.828 374.695 666.828C378.34 666.828 381.39 663.491 381.39 659.25C381.39 655.009 378.34 651.673 374.695 651.673C371.05 651.673 368 655.009 368 659.25Z" fill="#FEFEFE" stroke="black"/>
<path d="M412.277 752.453C412.277 756.694 415.327 760.03 418.972 760.03C422.617 760.03 425.667 756.694 425.667 752.453C425.667 748.212 422.617 744.875 418.972 744.875C415.327 744.875 412.277 748.212 412.277 752.453Z" fill="#FEFEFE" stroke="black"/>
<path d="M368 728.841C368 733.082 371.05 736.419 374.695 736.419C378.34 736.419 381.39 733.082 381.39 728.841C381.39 724.601 378.34 721.264 374.695 721.264C371.05 721.264 368 724.601 368 728.841Z" fill="#FEFEFE" stroke="black"/>
<path d="M392.352 728.22C392.352 734.863 397.137 740.147 402.922 740.147C408.706 740.147 413.491 734.863 413.491 728.22C413.491 721.577 408.706 716.293 402.922 716.293C397.137 716.293 392.352 721.577 392.352 728.22Z" fill="#578EE1" stroke="black"/>
<path d="M392.352 658.629C392.352 665.272 397.137 670.556 402.922 670.556C408.706 670.556 413.491 665.272 413.491 658.629C413.491 651.986 408.706 646.702 402.922 646.702C397.137 646.702 392.352 651.986 392.352 658.629Z" fill="#578EE1" stroke="black"/>
<path d="M416.705 694.046C416.705 701.032 421.737 706.594 427.828 706.594C433.918 706.594 438.95 701.032 438.95 694.046C438.95 687.06 433.918 681.498 427.828 681.498C421.737 681.498 416.705 687.06 416.705 694.046Z" fill="#515151" stroke="black"/>
<path d="M465.41 694.046C465.41 701.032 470.442 706.594 476.532 706.594C482.623 706.594 487.655 701.032 487.655 694.046C487.655 687.06 482.623 681.498 476.532 681.498C470.442 681.498 465.41 687.06 465.41 694.046Z" fill="#E91010" stroke="black"/>
<path d="M489.815 572.883L516.935 538.088M489.815 572.883L515.828 608.3M489.815 572.883H442.218M516.935 538.088H544.055M516.935 538.088L499.224 514.476M515.828 608.3H544.055M515.828 608.3L499.224 631.29" stroke="black" stroke-width="5"/>
<path d="M506.473 515.098C506.473 519.339 503.422 522.675 499.778 522.675C496.133 522.675 493.083 519.339 493.083 515.098C493.083 510.857 496.133 507.52 499.778 507.52C503.422 507.52 506.473 510.857 506.473 515.098Z" fill="#FEFEFE" stroke="black"/>
<path d="M550.75 538.709C550.75 542.95 547.7 546.286 544.055 546.286C540.41 546.286 537.36 542.95 537.36 538.709C537.36 534.468 540.41 531.131 544.055 531.131C547.7 531.131 550.75 534.468 550.75 538.709Z" fill="#FEFEFE" stroke="black"/>
<path d="M506.473 631.911C506.473 636.152 503.422 639.489 499.778 639.489C496.133 639.489 493.083 636.152 493.083 631.911C493.083 627.67 496.133 624.334 499.778 624.334C503.422 624.334 506.473 627.67 506.473 631.911Z" fill="#FEFEFE" stroke="black"/>
<path d="M550.75 608.3C550.75 612.541 547.7 615.877 544.055 615.877C540.41 615.877 537.36 612.541 537.36 608.3C537.36 604.059 540.41 600.722 544.055 600.722C547.7 600.722 550.75 604.059 550.75 608.3Z" fill="#FEFEFE" stroke="black"/>
<path d="M526.397 607.679C526.397 614.322 521.613 619.606 515.828 619.606C510.044 619.606 505.259 614.322 505.259 607.679C505.259 601.036 510.044 595.752 515.828 595.752C521.613 595.752 526.397 601.036 526.397 607.679Z" fill="#578EE1" stroke="black"/>
<path d="M526.397 538.088C526.397 544.731 521.613 550.015 515.828 550.015C510.044 550.015 505.259 544.731 505.259 538.088C505.259 531.445 510.044 526.161 515.828 526.161C521.613 526.161 526.397 531.445 526.397 538.088Z" fill="#578EE1" stroke="black"/>
<path d="M502.045 573.504C502.045 580.491 497.012 586.053 490.922 586.053C484.832 586.053 479.8 580.491 479.8 573.504C479.8 566.518 484.832 560.956 490.922 560.956C497.012 560.956 502.045 566.518 502.045 573.504Z" fill="#515151" stroke="black"/>
<path d="M453.34 573.504C453.34 580.491 448.308 586.053 442.217 586.053C436.127 586.053 431.095 580.491 431.095 573.504C431.095 566.518 436.127 560.956 442.217 560.956C448.308 560.956 453.34 566.518 453.34 573.504Z" fill="#E91010" stroke="black"/>
<path d="M245.185 693.425L218.065 658.629M245.185 693.425L219.172 728.841M245.185 693.425H292.782M218.065 658.629H190.945M218.065 658.629L235.776 635.018M219.172 728.841H190.945M219.172 728.841L235.776 751.831" stroke="black" stroke-width="5"/>
<path d="M228.527 635.639C228.527 639.88 231.578 643.217 235.222 643.217C238.867 643.217 241.917 639.88 241.917 635.639C241.917 631.398 238.867 628.062 235.222 628.062C231.578 628.062 228.527 631.398 228.527 635.639Z" fill="#FEFEFE" stroke="black"/>
<path d="M184.25 659.25C184.25 663.491 187.3 666.828 190.945 666.828C194.59 666.828 197.64 663.491 197.64 659.25C197.64 655.009 194.59 651.673 190.945 651.673C187.3 651.673 184.25 655.009 184.25 659.25Z" fill="#FEFEFE" stroke="black"/>
<path d="M228.527 752.453C228.527 756.694 231.578 760.03 235.222 760.03C238.867 760.03 241.917 756.694 241.917 752.453C241.917 748.212 238.867 744.875 235.222 744.875C231.578 744.875 228.527 748.212 228.527 752.453Z" fill="#FEFEFE" stroke="black"/>
<path d="M184.25 728.841C184.25 733.082 187.3 736.419 190.945 736.419C194.59 736.419 197.64 733.082 197.64 728.841C197.64 724.601 194.59 721.264 190.945 721.264C187.3 721.264 184.25 724.601 184.25 728.841Z" fill="#FEFEFE" stroke="black"/>
<path d="M208.603 728.22C208.603 734.863 213.387 740.147 219.172 740.147C224.956 740.147 229.741 734.863 229.741 728.22C229.741 721.577 224.956 716.293 219.172 716.293C213.387 716.293 208.603 721.577 208.603 728.22Z" fill="#578EE1" stroke="black"/>
<path d="M208.603 658.629C208.603 665.272 213.387 670.556 219.172 670.556C224.956 670.556 229.741 665.272 229.741 658.629C229.741 651.986 224.956 646.702 219.172 646.702C213.387 646.702 208.603 651.986 208.603 658.629Z" fill="#578EE1" stroke="black"/>
<path d="M232.955 694.046C232.955 701.032 237.988 706.594 244.078 706.594C250.168 706.594 255.2 701.032 255.2 694.046C255.2 687.06 250.168 681.498 244.078 681.498C237.988 681.498 232.955 687.06 232.955 694.046Z" fill="#515151" stroke="black"/>
<path d="M281.66 694.046C281.66 701.032 286.692 706.594 292.783 706.594C298.873 706.594 303.905 701.032 303.905 694.046C303.905 687.06 298.873 681.498 292.783 681.498C286.692 681.498 281.66 687.06 281.66 694.046Z" fill="#E91010" stroke="black"/>
<path d="M306.066 572.883L333.185 538.088M306.066 572.883L332.078 608.3M306.066 572.883H258.468M333.185 538.088H360.305M333.185 538.088L315.474 514.476M332.078 608.3H360.305M332.078 608.3L315.474 631.29" stroke="black" stroke-width="5"/>
<path d="M322.723 515.098C322.723 519.339 319.673 522.675 316.028 522.675C312.383 522.675 309.333 519.339 309.333 515.098C309.333 510.857 312.383 507.52 316.028 507.52C319.673 507.52 322.723 510.857 322.723 515.098Z" fill="#FEFEFE" stroke="black"/>
<path d="M367 538.709C367 542.95 363.95 546.286 360.305 546.286C356.66 546.286 353.61 542.95 353.61 538.709C353.61 534.468 356.66 531.131 360.305 531.131C363.95 531.131 367 534.468 367 538.709Z" fill="#FEFEFE" stroke="black"/>
<path d="M322.723 631.911C322.723 636.152 319.673 639.489 316.028 639.489C312.383 639.489 309.333 636.152 309.333 631.911C309.333 627.67 312.383 624.334 316.028 624.334C319.673 624.334 322.723 627.67 322.723 631.911Z" fill="#FEFEFE" stroke="black"/>
<path d="M367 608.3C367 612.541 363.95 615.877 360.305 615.877C356.66 615.877 353.61 612.541 353.61 608.3C353.61 604.059 356.66 600.722 360.305 600.722C363.95 600.722 367 604.059 367 608.3Z" fill="#FEFEFE" stroke="black"/>
<path d="M342.648 607.679C342.648 614.322 337.863 619.606 332.078 619.606C326.294 619.606 321.509 614.322 321.509 607.679C321.509 601.036 326.294 595.752 332.078 595.752C337.863 595.752 342.648 601.036 342.648 607.679Z" fill="#578EE1" stroke="black"/>
<path d="M342.648 538.088C342.648 544.731 337.863 550.015 332.078 550.015C326.294 550.015 321.509 544.731 321.509 538.088C321.509 531.445 326.294 526.161 332.078 526.161C337.863 526.161 342.648 531.445 342.648 538.088Z" fill="#578EE1" stroke="black"/>
<path d="M318.295 573.504C318.295 580.491 313.263 586.053 307.172 586.053C301.082 586.053 296.05 580.491 296.05 573.504C296.05 566.518 301.082 560.956 307.172 560.956C313.263 560.956 318.295 566.518 318.295 573.504Z" fill="#515151" stroke="black"/>
<path d="M269.59 573.504C269.59 580.491 264.558 586.053 258.468 586.053C252.377 586.053 247.345 580.491 247.345 573.504C247.345 566.518 252.377 560.956 258.468 560.956C264.558 560.956 269.59 566.518 269.59 573.504Z" fill="#E91010" stroke="black"/>
<path d="M61.4345 693.425L34.3147 658.629M61.4345 693.425L35.4217 728.841M61.4345 693.425H109.032M34.3147 658.629H7.195M34.3147 658.629L52.0256 635.018M35.4217 728.841H7.195M35.4217 728.841L52.0256 751.831" stroke="black" stroke-width="5"/>
<path d="M44.7772 635.639C44.7772 639.88 47.8275 643.217 51.4722 643.217C55.117 643.217 58.1672 639.88 58.1672 635.639C58.1672 631.398 55.117 628.062 51.4722 628.062C47.8275 628.062 44.7772 631.398 44.7772 635.639Z" fill="#FEFEFE" stroke="black"/>
<path d="M0.500076 659.25C0.500076 663.491 3.55036 666.828 7.19511 666.828C10.8399 666.828 13.8901 663.491 13.8901 659.25C13.8901 655.009 10.8399 651.673 7.19511 651.673C3.55036 651.673 0.500076 655.009 0.500076 659.25Z" fill="#FEFEFE" stroke="black"/>
<path d="M44.7772 752.453C44.7772 756.694 47.8275 760.03 51.4722 760.03C55.117 760.03 58.1672 756.694 58.1672 752.453C58.1672 748.212 55.117 744.875 51.4722 744.875C47.8275 744.875 44.7772 748.212 44.7772 752.453Z" fill="#FEFEFE" stroke="black"/>
<path d="M0.500076 728.841C0.500076 733.082 3.55036 736.419 7.19511 736.419C10.8399 736.419 13.8901 733.082 13.8901 728.841C13.8901 724.601 10.8399 721.264 7.19511 721.264C3.55036 721.264 0.500076 724.601 0.500076 728.841Z" fill="#FEFEFE" stroke="black"/>
<path d="M24.8524 728.22C24.8524 734.863 29.6373 740.147 35.4217 740.147C41.2061 740.147 45.991 734.863 45.991 728.22C45.991 721.577 41.2061 716.293 35.4217 716.293C29.6373 716.293 24.8524 721.577 24.8524 728.22Z" fill="#578EE1" stroke="black"/>
<path d="M24.8524 658.629C24.8524 665.272 29.6373 670.556 35.4217 670.556C41.2061 670.556 45.991 665.272 45.991 658.629C45.991 651.986 41.2061 646.702 35.4217 646.702C29.6373 646.702 24.8524 651.986 24.8524 658.629Z" fill="#578EE1" stroke="black"/>
<path d="M49.205 694.046C49.205 701.032 54.2376 706.594 60.3277 706.594C66.4178 706.594 71.4504 701.032 71.4504 694.046C71.4504 687.06 66.4178 681.498 60.3277 681.498C54.2376 681.498 49.205 687.06 49.205 694.046Z" fill="#515151" stroke="black"/>
<path d="M97.9097 694.046C97.9097 701.032 102.942 706.594 109.032 706.594C115.123 706.594 120.155 701.032 120.155 694.046C120.155 687.06 115.123 681.498 109.032 681.498C102.942 681.498 97.9097 687.06 97.9097 694.046Z" fill="#E91010" stroke="black"/>
<path d="M122.315 572.883L149.435 538.088M122.315 572.883L148.328 608.3M122.315 572.883H74.7175M149.435 538.088H176.555M149.435 538.088L131.724 514.476M148.328 608.3H176.555M148.328 608.3L131.724 631.29" stroke="black" stroke-width="5"/>
<path d="M138.973 515.098C138.973 519.339 135.922 522.675 132.278 522.675C128.633 522.675 125.583 519.339 125.583 515.098C125.583 510.857 128.633 507.52 132.278 507.52C135.922 507.52 138.973 510.857 138.973 515.098Z" fill="#FEFEFE" stroke="black"/>
<path d="M183.25 538.709C183.25 542.95 180.2 546.286 176.555 546.286C172.91 546.286 169.86 542.95 169.86 538.709C169.86 534.468 172.91 531.131 176.555 531.131C180.2 531.131 183.25 534.468 183.25 538.709Z" fill="#FEFEFE" stroke="black"/>
<path d="M138.973 631.911C138.973 636.152 135.922 639.489 132.278 639.489C128.633 639.489 125.583 636.152 125.583 631.911C125.583 627.67 128.633 624.334 132.278 624.334C135.922 624.334 138.973 627.67 138.973 631.911Z" fill="#FEFEFE" stroke="black"/>
<path d="M183.25 608.3C183.25 612.541 180.2 615.877 176.555 615.877C172.91 615.877 169.86 612.541 169.86 608.3C169.86 604.059 172.91 600.722 176.555 600.722C180.2 600.722 183.25 604.059 183.25 608.3Z" fill="#FEFEFE" stroke="black"/>
<path d="M158.897 607.679C158.897 614.322 154.113 619.606 148.328 619.606C142.544 619.606 137.759 614.322 137.759 607.679C137.759 601.036 142.544 595.752 148.328 595.752C154.113 595.752 158.897 601.036 158.897 607.679Z" fill="#578EE1" stroke="black"/>
<path d="M158.897 538.088C158.897 544.731 154.113 550.015 148.328 550.015C142.544 550.015 137.759 544.731 137.759 538.088C137.759 531.445 142.544 526.161 148.328 526.161C154.113 526.161 158.897 531.445 158.897 538.088Z" fill="#578EE1" stroke="black"/>
<path d="M134.545 573.504C134.545 580.491 129.512 586.053 123.422 586.053C117.332 586.053 112.3 580.491 112.3 573.504C112.3 566.518 117.332 560.956 123.422 560.956C129.512 560.956 134.545 566.518 134.545 573.504Z" fill="#515151" stroke="black"/>
<path d="M85.8402 573.504C85.8402 580.491 80.8076 586.053 74.7175 586.053C68.6274 586.053 63.5947 580.491 63.5947 573.504C63.5947 566.518 68.6274 560.956 74.7175 560.956C80.8076 560.956 85.8402 566.518 85.8402 573.504Z" fill="#E91010" stroke="black"/>
<path d="M61.4345 439.914L34.3147 405.119M61.4345 439.914L35.4217 475.331M61.4345 439.914H109.032M34.3147 405.119H7.195M34.3147 405.119L52.0256 381.508M35.4217 475.331H7.195M35.4217 475.331L52.0256 498.321" stroke="black" stroke-width="5"/>
<path d="M44.7772 382.129C44.7772 386.37 47.8275 389.707 51.4722 389.707C55.117 389.707 58.1672 386.37 58.1672 382.129C58.1672 377.888 55.117 374.552 51.4722 374.552C47.8275 374.552 44.7772 377.888 44.7772 382.129Z" fill="#FEFEFE" stroke="black"/>
<path d="M0.500076 405.74C0.500076 409.981 3.55036 413.318 7.19511 413.318C10.8399 413.318 13.8901 409.981 13.8901 405.74C13.8901 401.499 10.8399 398.163 7.19511 398.163C3.55036 398.163 0.500076 401.499 0.500076 405.74Z" fill="#FEFEFE" stroke="black"/>
<path d="M44.7772 498.943C44.7772 503.183 47.8275 506.52 51.4722 506.52C55.117 506.52 58.1672 503.183 58.1672 498.943C58.1672 494.702 55.117 491.365 51.4722 491.365C47.8275 491.365 44.7772 494.702 44.7772 498.943Z" fill="#FEFEFE" stroke="black"/>
<path d="M0.500076 475.331C0.500076 479.572 3.55036 482.909 7.19511 482.909C10.8399 482.909 13.8901 479.572 13.8901 475.331C13.8901 471.09 10.8399 467.754 7.19511 467.754C3.55036 467.754 0.500076 471.09 0.500076 475.331Z" fill="#FEFEFE" stroke="black"/>
<path d="M24.8524 474.71C24.8524 481.353 29.6373 486.637 35.4217 486.637C41.2061 486.637 45.991 481.353 45.991 474.71C45.991 468.067 41.2061 462.783 35.4217 462.783C29.6373 462.783 24.8524 468.067 24.8524 474.71Z" fill="#578EE1" stroke="black"/>
<path d="M24.8524 405.119C24.8524 411.762 29.6373 417.046 35.4217 417.046C41.2061 417.046 45.991 411.762 45.991 405.119C45.991 398.476 41.2061 393.192 35.4217 393.192C29.6373 393.192 24.8524 398.476 24.8524 405.119Z" fill="#578EE1" stroke="black"/>
<path d="M49.205 440.536C49.205 447.522 54.2376 453.084 60.3277 453.084C66.4178 453.084 71.4504 447.522 71.4504 440.536C71.4504 433.55 66.4178 427.987 60.3277 427.987C54.2376 427.987 49.205 433.55 49.205 440.536Z" fill="#515151" stroke="black"/>
<path d="M97.9097 440.536C97.9097 447.522 102.942 453.084 109.032 453.084C115.123 453.084 120.155 447.522 120.155 440.536C120.155 433.55 115.123 427.987 109.032 427.987C102.942 427.987 97.9097 433.55 97.9097 440.536Z" fill="#E91010" stroke="black"/>
<path d="M122.315 319.373L149.435 284.577M122.315 319.373L148.328 354.79M122.315 319.373H74.7175M149.435 284.577H176.555M149.435 284.577L131.724 260.966M148.328 354.79H176.555M148.328 354.79L131.724 377.78" stroke="black" stroke-width="5"/>
<path d="M138.973 261.588C138.973 265.829 135.922 269.165 132.278 269.165C128.633 269.165 125.583 265.829 125.583 261.588C125.583 257.347 128.633 254.01 132.278 254.01C135.922 254.01 138.973 257.347 138.973 261.588Z" fill="#FEFEFE" stroke="black"/>
<path d="M183.25 285.199C183.25 289.44 180.2 292.776 176.555 292.776C172.91 292.776 169.86 289.44 169.86 285.199C169.86 280.958 172.91 277.621 176.555 277.621C180.2 277.621 183.25 280.958 183.25 285.199Z" fill="#FEFEFE" stroke="black"/>
<path d="M138.973 378.401C138.973 382.642 135.922 385.979 132.278 385.979C128.633 385.979 125.583 382.642 125.583 378.401C125.583 374.16 128.633 370.824 132.278 370.824C135.922 370.824 138.973 374.16 138.973 378.401Z" fill="#FEFEFE" stroke="black"/>
<path d="M183.25 354.79C183.25 359.031 180.2 362.367 176.555 362.367C172.91 362.367 169.86 359.031 169.86 354.79C169.86 350.549 172.91 347.212 176.555 347.212C180.2 347.212 183.25 350.549 183.25 354.79Z" fill="#FEFEFE" stroke="black"/>
<path d="M158.897 354.169C158.897 360.812 154.113 366.096 148.328 366.096C142.544 366.096 137.759 360.812 137.759 354.169C137.759 347.526 142.544 342.242 148.328 342.242C154.113 342.242 158.897 347.526 158.897 354.169Z" fill="#578EE1" stroke="black"/>
<path d="M158.897 284.578C158.897 291.221 154.113 296.505 148.328 296.505C142.544 296.505 137.759 291.221 137.759 284.578C137.759 277.934 142.544 272.651 148.328 272.651C154.113 272.651 158.897 277.934 158.897 284.578Z" fill="#578EE1" stroke="black"/>
<path d="M134.545 319.994C134.545 326.981 129.512 332.543 123.422 332.543C117.332 332.543 112.3 326.981 112.3 319.994C112.3 313.008 117.332 307.446 123.422 307.446C129.512 307.446 134.545 313.008 134.545 319.994Z" fill="#515151" stroke="black"/>
<path d="M85.8402 319.994C85.8402 326.981 80.8076 332.543 74.7175 332.543C68.6274 332.543 63.5947 326.981 63.5947 319.994C63.5947 313.008 68.6274 307.446 74.7175 307.446C80.8076 307.446 85.8402 313.008 85.8402 319.994Z" fill="#E91010" stroke="black"/>
<path d="M245.185 439.914L218.065 405.119M245.185 439.914L219.172 475.331M245.185 439.914H292.782M218.065 405.119H190.945M218.065 405.119L235.776 381.508M219.172 475.331H190.945M219.172 475.331L235.776 498.321" stroke="black" stroke-width="5"/>
<path d="M228.527 382.129C228.527 386.37 231.578 389.707 235.222 389.707C238.867 389.707 241.917 386.37 241.917 382.129C241.917 377.888 238.867 374.552 235.222 374.552C231.578 374.552 228.527 377.888 228.527 382.129Z" fill="#FEFEFE" stroke="black"/>
<path d="M184.25 405.74C184.25 409.981 187.3 413.318 190.945 413.318C194.59 413.318 197.64 409.981 197.64 405.74C197.64 401.499 194.59 398.163 190.945 398.163C187.3 398.163 184.25 401.499 184.25 405.74Z" fill="#FEFEFE" stroke="black"/>
<path d="M228.527 498.943C228.527 503.183 231.578 506.52 235.222 506.52C238.867 506.52 241.917 503.183 241.917 498.943C241.917 494.702 238.867 491.365 235.222 491.365C231.578 491.365 228.527 494.702 228.527 498.943Z" fill="#FEFEFE" stroke="black"/>
<path d="M184.25 475.331C184.25 479.572 187.3 482.909 190.945 482.909C194.59 482.909 197.64 479.572 197.64 475.331C197.64 471.09 194.59 467.754 190.945 467.754C187.3 467.754 184.25 471.09 184.25 475.331Z" fill="#FEFEFE" stroke="black"/>
<path d="M208.603 474.71C208.603 481.353 213.387 486.637 219.172 486.637C224.956 486.637 229.741 481.353 229.741 474.71C229.741 468.067 224.956 462.783 219.172 462.783C213.387 462.783 208.603 468.067 208.603 474.71Z" fill="#578EE1" stroke="black"/>
<path d="M208.603 405.119C208.603 411.762 213.387 417.046 219.172 417.046C224.956 417.046 229.741 411.762 229.741 405.119C229.741 398.476 224.956 393.192 219.172 393.192C213.387 393.192 208.603 398.476 208.603 405.119Z" fill="#578EE1" stroke="black"/>
<path d="M232.955 440.536C232.955 447.522 237.988 453.084 244.078 453.084C250.168 453.084 255.2 447.522 255.2 440.536C255.2 433.55 250.168 427.987 244.078 427.987C237.988 427.987 232.955 433.55 232.955 440.536Z" fill="#515151" stroke="black"/>
<path d="M281.66 440.536C281.66 447.522 286.692 453.084 292.783 453.084C298.873 453.084 303.905 447.522 303.905 440.536C303.905 433.55 298.873 427.987 292.783 427.987C286.692 427.987 281.66 433.55 281.66 440.536Z" fill="#E91010" stroke="black"/>
<path d="M306.066 319.373L333.185 284.577M306.066 319.373L332.078 354.79M306.066 319.373H258.468M333.185 284.577H360.305M333.185 284.577L315.474 260.966M332.078 354.79H360.305M332.078 354.79L315.474 377.78" stroke="black" stroke-width="5"/>
<path d="M322.723 261.588C322.723 265.829 319.673 269.165 316.028 269.165C312.383 269.165 309.333 265.829 309.333 261.588C309.333 257.347 312.383 254.01 316.028 254.01C319.673 254.01 322.723 257.347 322.723 261.588Z" fill="#FEFEFE" stroke="black"/>
<path d="M367 285.199C367 289.44 363.95 292.776 360.305 292.776C356.66 292.776 353.61 289.44 353.61 285.199C353.61 280.958 356.66 277.621 360.305 277.621C363.95 277.621 367 280.958 367 285.199Z" fill="#FEFEFE" stroke="black"/>
<path d="M322.723 378.401C322.723 382.642 319.673 385.979 316.028 385.979C312.383 385.979 309.333 382.642 309.333 378.401C309.333 374.16 312.383 370.824 316.028 370.824C319.673 370.824 322.723 374.16 322.723 378.401Z" fill="#FEFEFE" stroke="black"/>
<path d="M367 354.79C367 359.031 363.95 362.367 360.305 362.367C356.66 362.367 353.61 359.031 353.61 354.79C353.61 350.549 356.66 347.212 360.305 347.212C363.95 347.212 367 350.549 367 354.79Z" fill="#FEFEFE" stroke="black"/>
<path d="M342.648 354.169C342.648 360.812 337.863 366.096 332.078 366.096C326.294 366.096 321.509 360.812 321.509 354.169C321.509 347.526 326.294 342.242 332.078 342.242C337.863 342.242 342.648 347.526 342.648 354.169Z" fill="#578EE1" stroke="black"/>
<path d="M342.648 284.578C342.648 291.221 337.863 296.505 332.078 296.505C326.294 296.505 321.509 291.221 321.509 284.578C321.509 277.934 326.294 272.651 332.078 272.651C337.863 272.651 342.648 277.934 342.648 284.578Z" fill="#578EE1" stroke="black"/>
<path d="M318.295 319.994C318.295 326.981 313.263 332.543 307.172 332.543C301.082 332.543 296.05 326.981 296.05 319.994C296.05 313.008 301.082 307.446 307.172 307.446C313.263 307.446 318.295 313.008 318.295 319.994Z" fill="#515151" stroke="black"/>
<path d="M269.59 319.994C269.59 326.981 264.558 332.543 258.468 332.543C252.377 332.543 247.345 326.981 247.345 319.994C247.345 313.008 252.377 307.446 258.468 307.446C264.558 307.446 269.59 313.008 269.59 319.994Z" fill="#E91010" stroke="black"/>
<path d="M428.934 439.914L401.815 405.119M428.934 439.914L402.922 475.331M428.934 439.914H476.532M401.815 405.119H374.695M401.815 405.119L419.526 381.508M402.922 475.331H374.695M402.922 475.331L419.526 498.321" stroke="black" stroke-width="5"/>
<path d="M412.277 382.129C412.277 386.37 415.327 389.707 418.972 389.707C422.617 389.707 425.667 386.37 425.667 382.129C425.667 377.888 422.617 374.552 418.972 374.552C415.327 374.552 412.277 377.888 412.277 382.129Z" fill="#FEFEFE" stroke="black"/>
<path d="M368 405.74C368 409.981 371.05 413.318 374.695 413.318C378.34 413.318 381.39 409.981 381.39 405.74C381.39 401.499 378.34 398.163 374.695 398.163C371.05 398.163 368 401.499 368 405.74Z" fill="#FEFEFE" stroke="black"/>
<path d="M412.277 498.943C412.277 503.183 415.327 506.52 418.972 506.52C422.617 506.52 425.667 503.183 425.667 498.943C425.667 494.702 422.617 491.365 418.972 491.365C415.327 491.365 412.277 494.702 412.277 498.943Z" fill="#FEFEFE" stroke="black"/>
<path d="M368 475.331C368 479.572 371.05 482.909 374.695 482.909C378.34 482.909 381.39 479.572 381.39 475.331C381.39 471.09 378.34 467.754 374.695 467.754C371.05 467.754 368 471.09 368 475.331Z" fill="#FEFEFE" stroke="black"/>
<path d="M392.352 474.71C392.352 481.353 397.137 486.637 402.922 486.637C408.706 486.637 413.491 481.353 413.491 474.71C413.491 468.067 408.706 462.783 402.922 462.783C397.137 462.783 392.352 468.067 392.352 474.71Z" fill="#578EE1" stroke="black"/>
<path d="M392.352 405.119C392.352 411.762 397.137 417.046 402.922 417.046C408.706 417.046 413.491 411.762 413.491 405.119C413.491 398.476 408.706 393.192 402.922 393.192C397.137 393.192 392.352 398.476 392.352 405.119Z" fill="#578EE1" stroke="black"/>
<path d="M416.705 440.536C416.705 447.522 421.737 453.084 427.828 453.084C433.918 453.084 438.95 447.522 438.95 440.536C438.95 433.55 433.918 427.987 427.828 427.987C421.737 427.987 416.705 433.55 416.705 440.536Z" fill="#515151" stroke="black"/>
<path d="M465.41 440.536C465.41 447.522 470.442 453.084 476.532 453.084C482.623 453.084 487.655 447.522 487.655 440.536C487.655 433.55 482.623 427.987 476.532 427.987C470.442 427.987 465.41 433.55 465.41 440.536Z" fill="#E91010" stroke="black"/>
<path d="M489.815 319.373L516.935 284.577M489.815 319.373L515.828 354.79M489.815 319.373H442.218M516.935 284.577H544.055M516.935 284.577L499.224 260.966M515.828 354.79H544.055M515.828 354.79L499.224 377.78" stroke="black" stroke-width="5"/>
<path d="M506.473 261.588C506.473 265.829 503.422 269.165 499.778 269.165C496.133 269.165 493.083 265.829 493.083 261.588C493.083 257.347 496.133 254.01 499.778 254.01C503.422 254.01 506.473 257.347 506.473 261.588Z" fill="#FEFEFE" stroke="black"/>
<path d="M550.75 285.199C550.75 289.44 547.7 292.776 544.055 292.776C540.41 292.776 537.36 289.44 537.36 285.199C537.36 280.958 540.41 277.621 544.055 277.621C547.7 277.621 550.75 280.958 550.75 285.199Z" fill="#FEFEFE" stroke="black"/>
<path d="M506.473 378.401C506.473 382.642 503.422 385.979 499.778 385.979C496.133 385.979 493.083 382.642 493.083 378.401C493.083 374.16 496.133 370.824 499.778 370.824C503.422 370.824 506.473 374.16 506.473 378.401Z" fill="#FEFEFE" stroke="black"/>
<path d="M550.75 354.79C550.75 359.031 547.7 362.367 544.055 362.367C540.41 362.367 537.36 359.031 537.36 354.79C537.36 350.549 540.41 347.212 544.055 347.212C547.7 347.212 550.75 350.549 550.75 354.79Z" fill="#FEFEFE" stroke="black"/>
<path d="M526.397 354.169C526.397 360.812 521.613 366.096 515.828 366.096C510.044 366.096 505.259 360.812 505.259 354.169C505.259 347.526 510.044 342.242 515.828 342.242C521.613 342.242 526.397 347.526 526.397 354.169Z" fill="#578EE1" stroke="black"/>
<path d="M526.397 284.578C526.397 291.221 521.613 296.505 515.828 296.505C510.044 296.505 505.259 291.221 505.259 284.578C505.259 277.934 510.044 272.651 515.828 272.651C521.613 272.651 526.397 277.934 526.397 284.578Z" fill="#578EE1" stroke="black"/>
<path d="M502.045 319.994C502.045 326.981 497.012 332.543 490.922 332.543C484.832 332.543 479.8 326.981 479.8 319.994C479.8 313.008 484.832 307.446 490.922 307.446C497.012 307.446 502.045 313.008 502.045 319.994Z" fill="#515151" stroke="black"/>
<path d="M453.34 319.994C453.34 326.981 448.308 332.543 442.217 332.543C436.127 332.543 431.095 326.981 431.095 319.994C431.095 313.008 436.127 307.446 442.217 307.446C448.308 307.446 453.34 313.008 453.34 319.994Z" fill="#E91010" stroke="black"/>
<path d="M612.684 439.914L585.565 405.119M612.684 439.914L586.672 475.331M612.684 439.914H660.282M585.565 405.119H558.445M585.565 405.119L603.276 381.508M586.672 475.331H558.445M586.672 475.331L603.276 498.321" stroke="black" stroke-width="5"/>
<path d="M596.027 382.129C596.027 386.37 599.077 389.707 602.722 389.707C606.367 389.707 609.417 386.37 609.417 382.129C609.417 377.888 606.367 374.552 602.722 374.552C599.077 374.552 596.027 377.888 596.027 382.129Z" fill="#FEFEFE" stroke="black"/>
<path d="M551.75 405.74C551.75 409.981 554.8 413.318 558.445 413.318C562.09 413.318 565.14 409.981 565.14 405.74C565.14 401.499 562.09 398.163 558.445 398.163C554.8 398.163 551.75 401.499 551.75 405.74Z" fill="#FEFEFE" stroke="black"/>
<path d="M596.027 498.943C596.027 503.183 599.077 506.52 602.722 506.52C606.367 506.52 609.417 503.183 609.417 498.943C609.417 494.702 606.367 491.365 602.722 491.365C599.077 491.365 596.027 494.702 596.027 498.943Z" fill="#FEFEFE" stroke="black"/>
<path d="M551.75 475.331C551.75 479.572 554.8 482.909 558.445 482.909C562.09 482.909 565.14 479.572 565.14 475.331C565.14 471.09 562.09 467.754 558.445 467.754C554.8 467.754 551.75 471.09 551.75 475.331Z" fill="#FEFEFE" stroke="black"/>
<path d="M576.102 474.71C576.102 481.353 580.887 486.637 586.672 486.637C592.456 486.637 597.241 481.353 597.241 474.71C597.241 468.067 592.456 462.783 586.672 462.783C580.887 462.783 576.102 468.067 576.102 474.71Z" fill="#578EE1" stroke="black"/>
<path d="M576.102 405.119C576.102 411.762 580.887 417.046 586.672 417.046C592.456 417.046 597.241 411.762 597.241 405.119C597.241 398.476 592.456 393.192 586.672 393.192C580.887 393.192 576.102 398.476 576.102 405.119Z" fill="#578EE1" stroke="black"/>
<path d="M600.455 440.536C600.455 447.522 605.487 453.084 611.578 453.084C617.668 453.084 622.7 447.522 622.7 440.536C622.7 433.55 617.668 427.987 611.578 427.987C605.487 427.987 600.455 433.55 600.455 440.536Z" fill="#515151" stroke="black"/>
<path d="M649.16 440.536C649.16 447.522 654.192 453.084 660.282 453.084C666.373 453.084 671.405 447.522 671.405 440.536C671.405 433.55 666.373 427.987 660.282 427.987C654.192 427.987 649.16 433.55 649.16 440.536Z" fill="#E91010" stroke="black"/>
<path d="M673.566 319.373L700.685 284.577M673.566 319.373L699.578 354.79M673.566 319.373H625.968M700.685 284.577H727.805M700.685 284.577L682.974 260.966M699.578 354.79H727.805M699.578 354.79L682.974 377.78" stroke="black" stroke-width="5"/>
<path d="M690.223 261.588C690.223 265.829 687.173 269.165 683.528 269.165C679.883 269.165 676.833 265.829 676.833 261.588C676.833 257.347 679.883 254.01 683.528 254.01C687.173 254.01 690.223 257.347 690.223 261.588Z" fill="#FEFEFE" stroke="black"/>
<path d="M734.5 285.199C734.5 289.44 731.45 292.776 727.805 292.776C724.16 292.776 721.11 289.44 721.11 285.199C721.11 280.958 724.16 277.621 727.805 277.621C731.45 277.621 734.5 280.958 734.5 285.199Z" fill="#FEFEFE" stroke="black"/>
<path d="M690.223 378.401C690.223 382.642 687.173 385.979 683.528 385.979C679.883 385.979 676.833 382.642 676.833 378.401C676.833 374.16 679.883 370.824 683.528 370.824C687.173 370.824 690.223 374.16 690.223 378.401Z" fill="#FEFEFE" stroke="black"/>
<path d="M734.5 354.79C734.5 359.031 731.45 362.367 727.805 362.367C724.16 362.367 721.11 359.031 721.11 354.79C721.11 350.549 724.16 347.212 727.805 347.212C731.45 347.212 734.5 350.549 734.5 354.79Z" fill="#FEFEFE" stroke="black"/>
<path d="M710.148 354.169C710.148 360.812 705.363 366.096 699.578 366.096C693.794 366.096 689.009 360.812 689.009 354.169C689.009 347.526 693.794 342.242 699.578 342.242C705.363 342.242 710.148 347.526 710.148 354.169Z" fill="#578EE1" stroke="black"/>
<path d="M710.148 284.578C710.148 291.221 705.363 296.505 699.578 296.505C693.794 296.505 689.009 291.221 689.009 284.578C689.009 277.934 693.794 272.651 699.578 272.651C705.363 272.651 710.148 277.934 710.148 284.578Z" fill="#578EE1" stroke="black"/>
<path d="M685.795 319.994C685.795 326.981 680.763 332.543 674.672 332.543C668.582 332.543 663.55 326.981 663.55 319.994C663.55 313.008 668.582 307.446 674.672 307.446C680.763 307.446 685.795 313.008 685.795 319.994Z" fill="#515151" stroke="black"/>
<path d="M637.09 319.994C637.09 326.981 632.058 332.543 625.968 332.543C619.877 332.543 614.845 326.981 614.845 319.994C614.845 313.008 619.877 307.446 625.968 307.446C632.058 307.446 637.09 313.008 637.09 319.994Z" fill="#E91010" stroke="black"/>
<path d="M61.4345 186.404L34.3147 151.609M61.4345 186.404L35.4217 221.821M61.4345 186.404H109.032M34.3147 151.609H7.195M34.3147 151.609L52.0256 127.998M35.4217 221.821H7.195M35.4217 221.821L52.0256 244.811" stroke="black" stroke-width="5"/>
<path d="M44.7772 128.619C44.7772 132.86 47.8275 136.196 51.4722 136.196C55.117 136.196 58.1672 132.86 58.1672 128.619C58.1672 124.378 55.117 121.041 51.4722 121.041C47.8275 121.041 44.7772 124.378 44.7772 128.619Z" fill="#FEFEFE" stroke="black"/>
<path d="M0.500076 152.23C0.500076 156.471 3.55036 159.808 7.19511 159.808C10.8399 159.808 13.8901 156.471 13.8901 152.23C13.8901 147.989 10.8399 144.653 7.19511 144.653C3.55036 144.653 0.500076 147.989 0.500076 152.23Z" fill="#FEFEFE" stroke="black"/>
<path d="M44.7772 245.432C44.7772 249.673 47.8275 253.01 51.4722 253.01C55.117 253.01 58.1672 249.673 58.1672 245.432C58.1672 241.192 55.117 237.855 51.4722 237.855C47.8275 237.855 44.7772 241.192 44.7772 245.432Z" fill="#FEFEFE" stroke="black"/>
<path d="M0.500076 221.821C0.500076 226.062 3.55036 229.399 7.19511 229.399C10.8399 229.399 13.8901 226.062 13.8901 221.821C13.8901 217.58 10.8399 214.244 7.19511 214.244C3.55036 214.244 0.500076 217.58 0.500076 221.821Z" fill="#FEFEFE" stroke="black"/>
<path d="M24.8524 221.2C24.8524 227.843 29.6373 233.127 35.4217 233.127C41.2061 233.127 45.991 227.843 45.991 221.2C45.991 214.557 41.2061 209.273 35.4217 209.273C29.6373 209.273 24.8524 214.557 24.8524 221.2Z" fill="#578EE1" stroke="black"/>
<path d="M24.8524 151.609C24.8524 158.252 29.6373 163.536 35.4217 163.536C41.2061 163.536 45.991 158.252 45.991 151.609C45.991 144.966 41.2061 139.682 35.4217 139.682C29.6373 139.682 24.8524 144.966 24.8524 151.609Z" fill="#578EE1" stroke="black"/>
<path d="M49.205 187.026C49.205 194.012 54.2376 199.574 60.3277 199.574C66.4178 199.574 71.4504 194.012 71.4504 187.026C71.4504 180.04 66.4178 174.477 60.3277 174.477C54.2376 174.477 49.205 180.04 49.205 187.026Z" fill="#515151" stroke="black"/>
<path d="M97.9097 187.026C97.9097 194.012 102.942 199.574 109.032 199.574C115.123 199.574 120.155 194.012 120.155 187.026C120.155 180.04 115.123 174.477 109.032 174.477C102.942 174.477 97.9097 180.04 97.9097 187.026Z" fill="#E91010" stroke="black"/>
<path d="M122.315 65.8629L149.435 31.0674M122.315 65.8629L148.328 101.28M122.315 65.8629H74.7175M149.435 31.0674H176.555M149.435 31.0674L131.724 7.45618M148.328 101.28H176.555M148.328 101.28L131.724 124.27" stroke="black" stroke-width="5"/>
<path d="M138.973 8.07753C138.973 12.3184 135.922 15.6551 132.278 15.6551C128.633 15.6551 125.583 12.3184 125.583 8.07753C125.583 3.83662 128.633 0.5 132.278 0.5C135.922 0.5 138.973 3.83662 138.973 8.07753Z" fill="#FEFEFE" stroke="black"/>
<path d="M183.25 31.6888C183.25 35.9297 180.2 39.2663 176.555 39.2663C172.91 39.2663 169.86 35.9297 169.86 31.6888C169.86 27.4479 172.91 24.1113 176.555 24.1113C180.2 24.1113 183.25 27.4479 183.25 31.6888Z" fill="#FEFEFE" stroke="black"/>
<path d="M138.973 124.891C138.973 129.132 135.922 132.469 132.278 132.469C128.633 132.469 125.583 129.132 125.583 124.891C125.583 120.65 128.633 117.313 132.278 117.313C135.922 117.313 138.973 120.65 138.973 124.891Z" fill="#FEFEFE" stroke="black"/>
<path d="M183.25 101.28C183.25 105.521 180.2 108.857 176.555 108.857C172.91 108.857 169.86 105.521 169.86 101.28C169.86 97.0389 172.91 93.7023 176.555 93.7023C180.2 93.7023 183.25 97.0389 183.25 101.28Z" fill="#FEFEFE" stroke="black"/>
<path d="M158.897 100.658C158.897 107.302 154.113 112.585 148.328 112.585C142.544 112.585 137.759 107.302 137.759 100.658C137.759 94.0154 142.544 88.7315 148.328 88.7315C154.113 88.7315 158.897 94.0154 158.897 100.658Z" fill="#578EE1" stroke="black"/>
<path d="M158.897 31.0675C158.897 37.7105 154.113 42.9944 148.328 42.9944C142.544 42.9944 137.759 37.7105 137.759 31.0675C137.759 24.4244 142.544 19.1405 148.328 19.1405C154.113 19.1405 158.897 24.4244 158.897 31.0675Z" fill="#578EE1" stroke="black"/>
<path d="M134.545 66.4843C134.545 73.4705 129.512 79.0326 123.422 79.0326C117.332 79.0326 112.3 73.4705 112.3 66.4843C112.3 59.4981 117.332 53.936 123.422 53.936C129.512 53.936 134.545 59.4981 134.545 66.4843Z" fill="#515151" stroke="black"/>
<path d="M85.8402 66.4843C85.8402 73.4705 80.8076 79.0326 74.7175 79.0326C68.6274 79.0326 63.5947 73.4705 63.5947 66.4843C63.5947 59.4981 68.6274 53.936 74.7175 53.936C80.8076 53.936 85.8402 59.4981 85.8402 66.4843Z" fill="#E91010" stroke="black"/>
<path d="M245.185 186.404L218.065 151.609M245.185 186.404L219.172 221.821M245.185 186.404H292.782M218.065 151.609H190.945M218.065 151.609L235.776 127.998M219.172 221.821H190.945M219.172 221.821L235.776 244.811" stroke="black" stroke-width="5"/>
<path d="M228.527 128.619C228.527 132.86 231.578 136.196 235.222 136.196C238.867 136.196 241.917 132.86 241.917 128.619C241.917 124.378 238.867 121.041 235.222 121.041C231.578 121.041 228.527 124.378 228.527 128.619Z" fill="#FEFEFE" stroke="black"/>
<path d="M184.25 152.23C184.25 156.471 187.3 159.808 190.945 159.808C194.59 159.808 197.64 156.471 197.64 152.23C197.64 147.989 194.59 144.653 190.945 144.653C187.3 144.653 184.25 147.989 184.25 152.23Z" fill="#FEFEFE" stroke="black"/>
<path d="M228.527 245.432C228.527 249.673 231.578 253.01 235.222 253.01C238.867 253.01 241.917 249.673 241.917 245.432C241.917 241.192 238.867 237.855 235.222 237.855C231.578 237.855 228.527 241.192 228.527 245.432Z" fill="#FEFEFE" stroke="black"/>
<path d="M184.25 221.821C184.25 226.062 187.3 229.399 190.945 229.399C194.59 229.399 197.64 226.062 197.64 221.821C197.64 217.58 194.59 214.244 190.945 214.244C187.3 214.244 184.25 217.58 184.25 221.821Z" fill="#FEFEFE" stroke="black"/>
<path d="M208.603 221.2C208.603 227.843 213.387 233.127 219.172 233.127C224.956 233.127 229.741 227.843 229.741 221.2C229.741 214.557 224.956 209.273 219.172 209.273C213.387 209.273 208.603 214.557 208.603 221.2Z" fill="#578EE1" stroke="black"/>
<path d="M208.603 151.609C208.603 158.252 213.387 163.536 219.172 163.536C224.956 163.536 229.741 158.252 229.741 151.609C229.741 144.966 224.956 139.682 219.172 139.682C213.387 139.682 208.603 144.966 208.603 151.609Z" fill="#578EE1" stroke="black"/>
<path d="M232.955 187.026C232.955 194.012 237.988 199.574 244.078 199.574C250.168 199.574 255.2 194.012 255.2 187.026C255.2 180.04 250.168 174.477 244.078 174.477C237.988 174.477 232.955 180.04 232.955 187.026Z" fill="#515151" stroke="black"/>
<path d="M281.66 187.026C281.66 194.012 286.692 199.574 292.783 199.574C298.873 199.574 303.905 194.012 303.905 187.026C303.905 180.04 298.873 174.477 292.783 174.477C286.692 174.477 281.66 180.04 281.66 187.026Z" fill="#E91010" stroke="black"/>
<path d="M306.066 65.8629L333.185 31.0674M306.066 65.8629L332.078 101.28M306.066 65.8629H258.468M333.185 31.0674H360.305M333.185 31.0674L315.474 7.45618M332.078 101.28H360.305M332.078 101.28L315.474 124.27" stroke="black" stroke-width="5"/>
<path d="M322.723 8.07753C322.723 12.3184 319.673 15.6551 316.028 15.6551C312.383 15.6551 309.333 12.3184 309.333 8.07753C309.333 3.83662 312.383 0.5 316.028 0.5C319.673 0.5 322.723 3.83662 322.723 8.07753Z" fill="#FEFEFE" stroke="black"/>
<path d="M367 31.6888C367 35.9297 363.95 39.2663 360.305 39.2663C356.66 39.2663 353.61 35.9297 353.61 31.6888C353.61 27.4479 356.66 24.1113 360.305 24.1113C363.95 24.1113 367 27.4479 367 31.6888Z" fill="#FEFEFE" stroke="black"/>
<path d="M322.723 124.891C322.723 129.132 319.673 132.469 316.028 132.469C312.383 132.469 309.333 129.132 309.333 124.891C309.333 120.65 312.383 117.313 316.028 117.313C319.673 117.313 322.723 120.65 322.723 124.891Z" fill="#FEFEFE" stroke="black"/>
<path d="M367 101.28C367 105.521 363.95 108.857 360.305 108.857C356.66 108.857 353.61 105.521 353.61 101.28C353.61 97.0389 356.66 93.7023 360.305 93.7023C363.95 93.7023 367 97.0389 367 101.28Z" fill="#FEFEFE" stroke="black"/>
<path d="M342.648 100.658C342.648 107.302 337.863 112.585 332.078 112.585C326.294 112.585 321.509 107.302 321.509 100.658C321.509 94.0154 326.294 88.7315 332.078 88.7315C337.863 88.7315 342.648 94.0154 342.648 100.658Z" fill="#578EE1" stroke="black"/>
<path d="M342.648 31.0675C342.648 37.7105 337.863 42.9944 332.078 42.9944C326.294 42.9944 321.509 37.7105 321.509 31.0675C321.509 24.4244 326.294 19.1405 332.078 19.1405C337.863 19.1405 342.648 24.4244 342.648 31.0675Z" fill="#578EE1" stroke="black"/>
<path d="M318.295 66.4843C318.295 73.4705 313.263 79.0326 307.172 79.0326C301.082 79.0326 296.05 73.4705 296.05 66.4843C296.05 59.4981 301.082 53.936 307.172 53.936C313.263 53.936 318.295 59.4981 318.295 66.4843Z" fill="#515151" stroke="black"/>
<path d="M269.59 66.4843C269.59 73.4705 264.558 79.0326 258.468 79.0326C252.377 79.0326 247.345 73.4705 247.345 66.4843C247.345 59.4981 252.377 53.936 258.468 53.936C264.558 53.936 269.59 59.4981 269.59 66.4843Z" fill="#E91010" stroke="black"/>
<path d="M428.934 186.404L401.815 151.609M428.934 186.404L402.922 221.821M428.934 186.404H476.532M401.815 151.609H374.695M401.815 151.609L419.526 127.998M402.922 221.821H374.695M402.922 221.821L419.526 244.811" stroke="black" stroke-width="5"/>
<path d="M412.277 128.619C412.277 132.86 415.327 136.196 418.972 136.196C422.617 136.196 425.667 132.86 425.667 128.619C425.667 124.378 422.617 121.041 418.972 121.041C415.327 121.041 412.277 124.378 412.277 128.619Z" fill="#FEFEFE" stroke="black"/>
<path d="M368 152.23C368 156.471 371.05 159.808 374.695 159.808C378.34 159.808 381.39 156.471 381.39 152.23C381.39 147.989 378.34 144.653 374.695 144.653C371.05 144.653 368 147.989 368 152.23Z" fill="#FEFEFE" stroke="black"/>
<path d="M412.277 245.432C412.277 249.673 415.327 253.01 418.972 253.01C422.617 253.01 425.667 249.673 425.667 245.432C425.667 241.192 422.617 237.855 418.972 237.855C415.327 237.855 412.277 241.192 412.277 245.432Z" fill="#FEFEFE" stroke="black"/>
<path d="M368 221.821C368 226.062 371.05 229.399 374.695 229.399C378.34 229.399 381.39 226.062 381.39 221.821C381.39 217.58 378.34 214.244 374.695 214.244C371.05 214.244 368 217.58 368 221.821Z" fill="#FEFEFE" stroke="black"/>
<path d="M392.352 221.2C392.352 227.843 397.137 233.127 402.922 233.127C408.706 233.127 413.491 227.843 413.491 221.2C413.491 214.557 408.706 209.273 402.922 209.273C397.137 209.273 392.352 214.557 392.352 221.2Z" fill="#578EE1" stroke="black"/>
<path d="M392.352 151.609C392.352 158.252 397.137 163.536 402.922 163.536C408.706 163.536 413.491 158.252 413.491 151.609C413.491 144.966 408.706 139.682 402.922 139.682C397.137 139.682 392.352 144.966 392.352 151.609Z" fill="#578EE1" stroke="black"/>
<path d="M416.705 187.026C416.705 194.012 421.737 199.574 427.828 199.574C433.918 199.574 438.95 194.012 438.95 187.026C438.95 180.04 433.918 174.477 427.828 174.477C421.737 174.477 416.705 180.04 416.705 187.026Z" fill="#515151" stroke="black"/>
<path d="M465.41 187.026C465.41 194.012 470.442 199.574 476.532 199.574C482.623 199.574 487.655 194.012 487.655 187.026C487.655 180.04 482.623 174.477 476.532 174.477C470.442 174.477 465.41 180.04 465.41 187.026Z" fill="#E91010" stroke="black"/>
<path d="M489.816 65.8629L516.935 31.0674M489.816 65.8629L515.828 101.28M489.816 65.8629H442.218M516.935 31.0674H544.055M516.935 31.0674L499.224 7.45618M515.828 101.28H544.055M515.828 101.28L499.224 124.27" stroke="black" stroke-width="5"/>
<path d="M506.473 8.07753C506.473 12.3184 503.423 15.6551 499.778 15.6551C496.133 15.6551 493.083 12.3184 493.083 8.07753C493.083 3.83662 496.133 0.5 499.778 0.5C503.423 0.5 506.473 3.83662 506.473 8.07753Z" fill="#FEFEFE" stroke="black"/>
<path d="M550.75 31.6888C550.75 35.9297 547.7 39.2663 544.055 39.2663C540.41 39.2663 537.36 35.9297 537.36 31.6888C537.36 27.4479 540.41 24.1113 544.055 24.1113C547.7 24.1113 550.75 27.4479 550.75 31.6888Z" fill="#FEFEFE" stroke="black"/>
<path d="M506.473 124.891C506.473 129.132 503.423 132.469 499.778 132.469C496.133 132.469 493.083 129.132 493.083 124.891C493.083 120.65 496.133 117.313 499.778 117.313C503.423 117.313 506.473 120.65 506.473 124.891Z" fill="#FEFEFE" stroke="black"/>
<path d="M550.75 101.28C550.75 105.521 547.7 108.857 544.055 108.857C540.41 108.857 537.36 105.521 537.36 101.28C537.36 97.0389 540.41 93.7023 544.055 93.7023C547.7 93.7023 550.75 97.0389 550.75 101.28Z" fill="#FEFEFE" stroke="black"/>
<path d="M526.398 100.658C526.398 107.302 521.613 112.585 515.828 112.585C510.044 112.585 505.259 107.302 505.259 100.658C505.259 94.0154 510.044 88.7315 515.828 88.7315C521.613 88.7315 526.398 94.0154 526.398 100.658Z" fill="#578EE1" stroke="black"/>
<path d="M526.398 31.0675C526.398 37.7105 521.613 42.9944 515.828 42.9944C510.044 42.9944 505.259 37.7105 505.259 31.0675C505.259 24.4244 510.044 19.1405 515.828 19.1405C521.613 19.1405 526.398 24.4244 526.398 31.0675Z" fill="#578EE1" stroke="black"/>
<path d="M502.045 66.4843C502.045 73.4705 497.013 79.0326 490.922 79.0326C484.832 79.0326 479.8 73.4705 479.8 66.4843C479.8 59.4981 484.832 53.936 490.922 53.936C497.013 53.936 502.045 59.4981 502.045 66.4843Z" fill="#515151" stroke="black"/>
<path d="M453.34 66.4843C453.34 73.4705 448.308 79.0326 442.218 79.0326C436.127 79.0326 431.095 73.4705 431.095 66.4843C431.095 59.4981 436.127 53.936 442.218 53.936C448.308 53.936 453.34 59.4981 453.34 66.4843Z" fill="#E91010" stroke="black"/>
<path d="M612.684 186.404L585.565 151.609M612.684 186.404L586.672 221.821M612.684 186.404H660.282M585.565 151.609H558.445M585.565 151.609L603.276 127.998M586.672 221.821H558.445M586.672 221.821L603.276 244.811" stroke="black" stroke-width="5"/>
<path d="M596.027 128.619C596.027 132.86 599.077 136.196 602.722 136.196C606.367 136.196 609.417 132.86 609.417 128.619C609.417 124.378 606.367 121.041 602.722 121.041C599.077 121.041 596.027 124.378 596.027 128.619Z" fill="#FEFEFE" stroke="black"/>
<path d="M551.75 152.23C551.75 156.471 554.8 159.808 558.445 159.808C562.09 159.808 565.14 156.471 565.14 152.23C565.14 147.989 562.09 144.653 558.445 144.653C554.8 144.653 551.75 147.989 551.75 152.23Z" fill="#FEFEFE" stroke="black"/>
<path d="M596.027 245.432C596.027 249.673 599.077 253.01 602.722 253.01C606.367 253.01 609.417 249.673 609.417 245.432C609.417 241.192 606.367 237.855 602.722 237.855C599.077 237.855 596.027 241.192 596.027 245.432Z" fill="#FEFEFE" stroke="black"/>
<path d="M551.75 221.821C551.75 226.062 554.8 229.399 558.445 229.399C562.09 229.399 565.14 226.062 565.14 221.821C565.14 217.58 562.09 214.244 558.445 214.244C554.8 214.244 551.75 217.58 551.75 221.821Z" fill="#FEFEFE" stroke="black"/>
<path d="M576.102 221.2C576.102 227.843 580.887 233.127 586.672 233.127C592.456 233.127 597.241 227.843 597.241 221.2C597.241 214.557 592.456 209.273 586.672 209.273C580.887 209.273 576.102 214.557 576.102 221.2Z" fill="#578EE1" stroke="black"/>
<path d="M576.102 151.609C576.102 158.252 580.887 163.536 586.672 163.536C592.456 163.536 597.241 158.252 597.241 151.609C597.241 144.966 592.456 139.682 586.672 139.682C580.887 139.682 576.102 144.966 576.102 151.609Z" fill="#578EE1" stroke="black"/>
<path d="M600.455 187.026C600.455 194.012 605.487 199.574 611.578 199.574C617.668 199.574 622.7 194.012 622.7 187.026C622.7 180.04 617.668 174.477 611.578 174.477C605.487 174.477 600.455 180.04 600.455 187.026Z" fill="#515151" stroke="black"/>
<path d="M649.16 187.026C649.16 194.012 654.192 199.574 660.282 199.574C666.373 199.574 671.405 194.012 671.405 187.026C671.405 180.04 666.373 174.477 660.282 174.477C654.192 174.477 649.16 180.04 649.16 187.026Z" fill="#E91010" stroke="black"/>
<path d="M673.566 65.8629L700.685 31.0674M673.566 65.8629L699.578 101.28M673.566 65.8629H625.968M700.685 31.0674H727.805M700.685 31.0674L682.974 7.45618M699.578 101.28H727.805M699.578 101.28L682.974 124.27" stroke="black" stroke-width="5"/>
<path d="M690.223 8.07753C690.223 12.3184 687.173 15.6551 683.528 15.6551C679.883 15.6551 676.833 12.3184 676.833 8.07753C676.833 3.83662 679.883 0.5 683.528 0.5C687.173 0.5 690.223 3.83662 690.223 8.07753Z" fill="#FEFEFE" stroke="black"/>
<path d="M734.5 31.6888C734.5 35.9297 731.45 39.2663 727.805 39.2663C724.16 39.2663 721.11 35.9297 721.11 31.6888C721.11 27.4479 724.16 24.1113 727.805 24.1113C731.45 24.1113 734.5 27.4479 734.5 31.6888Z" fill="#FEFEFE" stroke="black"/>
<path d="M690.223 124.891C690.223 129.132 687.173 132.469 683.528 132.469C679.883 132.469 676.833 129.132 676.833 124.891C676.833 120.65 679.883 117.313 683.528 117.313C687.173 117.313 690.223 120.65 690.223 124.891Z" fill="#FEFEFE" stroke="black"/>
<path d="M734.5 101.28C734.5 105.521 731.45 108.857 727.805 108.857C724.16 108.857 721.11 105.521 721.11 101.28C721.11 97.0389 724.16 93.7023 727.805 93.7023C731.45 93.7023 734.5 97.0389 734.5 101.28Z" fill="#FEFEFE" stroke="black"/>
<path d="M710.148 100.658C710.148 107.302 705.363 112.585 699.578 112.585C693.794 112.585 689.009 107.302 689.009 100.658C689.009 94.0154 693.794 88.7315 699.578 88.7315C705.363 88.7315 710.148 94.0154 710.148 100.658Z" fill="#578EE1" stroke="black"/>
<path d="M710.148 31.0675C710.148 37.7105 705.363 42.9944 699.578 42.9944C693.794 42.9944 689.009 37.7105 689.009 31.0675C689.009 24.4244 693.794 19.1405 699.578 19.1405C705.363 19.1405 710.148 24.4244 710.148 31.0675Z" fill="#578EE1" stroke="black"/>
<path d="M685.795 66.4843C685.795 73.4705 680.763 79.0326 674.672 79.0326C668.582 79.0326 663.55 73.4705 663.55 66.4843C663.55 59.4981 668.582 53.936 674.672 53.936C680.763 53.936 685.795 59.4981 685.795 66.4843Z" fill="#515151" stroke="black"/>
<path d="M637.09 66.4843C637.09 73.4705 632.058 79.0326 625.968 79.0326C619.877 79.0326 614.845 73.4705 614.845 66.4843C614.845 59.4981 619.877 53.936 625.968 53.936C632.058 53.936 637.09 59.4981 637.09 66.4843Z" fill="#E91010" stroke="black"/>
<path d="M980.185 693.425L953.065 658.629M980.185 693.425L954.172 728.841M980.185 693.425H1027.78M953.065 658.629H925.945M953.065 658.629L970.776 635.018M954.172 728.841H925.945M954.172 728.841L970.776 751.831" stroke="black" stroke-width="5"/>
<path d="M963.527 635.639C963.527 639.88 966.578 643.217 970.222 643.217C973.867 643.217 976.917 639.88 976.917 635.639C976.917 631.398 973.867 628.062 970.222 628.062C966.578 628.062 963.527 631.398 963.527 635.639Z" fill="#FEFEFE" stroke="black"/>
<path d="M919.25 659.25C919.25 663.491 922.3 666.828 925.945 666.828C929.59 666.828 932.64 663.491 932.64 659.25C932.64 655.009 929.59 651.673 925.945 651.673C922.3 651.673 919.25 655.009 919.25 659.25Z" fill="#FEFEFE" stroke="black"/>
<path d="M963.527 752.453C963.527 756.694 966.578 760.03 970.222 760.03C973.867 760.03 976.917 756.694 976.917 752.453C976.917 748.212 973.867 744.875 970.222 744.875C966.578 744.875 963.527 748.212 963.527 752.453Z" fill="#FEFEFE" stroke="black"/>
<path d="M919.25 728.841C919.25 733.082 922.3 736.419 925.945 736.419C929.59 736.419 932.64 733.082 932.64 728.841C932.64 724.601 929.59 721.264 925.945 721.264C922.3 721.264 919.25 724.601 919.25 728.841Z" fill="#FEFEFE" stroke="black"/>
<path d="M943.603 728.22C943.603 734.863 948.387 740.147 954.172 740.147C959.956 740.147 964.741 734.863 964.741 728.22C964.741 721.577 959.956 716.293 954.172 716.293C948.387 716.293 943.603 721.577 943.603 728.22Z" fill="#578EE1" stroke="black"/>
<path d="M943.603 658.629C943.603 665.272 948.387 670.556 954.172 670.556C959.956 670.556 964.741 665.272 964.741 658.629C964.741 651.986 959.956 646.702 954.172 646.702C948.387 646.702 943.603 651.986 943.603 658.629Z" fill="#578EE1" stroke="black"/>
<path d="M967.955 694.046C967.955 701.032 972.988 706.594 979.078 706.594C985.168 706.594 990.2 701.032 990.2 694.046C990.2 687.06 985.168 681.498 979.078 681.498C972.988 681.498 967.955 687.06 967.955 694.046Z" fill="#515151" stroke="black"/>
<path d="M1016.66 694.046C1016.66 701.032 1021.69 706.594 1027.78 706.594C1033.87 706.594 1038.91 701.032 1038.91 694.046C1038.91 687.06 1033.87 681.498 1027.78 681.498C1021.69 681.498 1016.66 687.06 1016.66 694.046Z" fill="#E91010" stroke="black"/>
<path d="M1041.07 572.883L1068.19 538.088M1041.07 572.883L1067.08 608.3M1041.07 572.883H993.468M1068.19 538.088H1095.31M1068.19 538.088L1050.47 514.476M1067.08 608.3H1095.31M1067.08 608.3L1050.47 631.29" stroke="black" stroke-width="5"/>
<path d="M1057.72 515.098C1057.72 519.339 1054.67 522.675 1051.03 522.675C1047.38 522.675 1044.33 519.339 1044.33 515.098C1044.33 510.857 1047.38 507.52 1051.03 507.52C1054.67 507.52 1057.72 510.857 1057.72 515.098Z" fill="#FEFEFE" stroke="black"/>
<path d="M1102 538.709C1102 542.95 1098.95 546.286 1095.3 546.286C1091.66 546.286 1088.61 542.95 1088.61 538.709C1088.61 534.468 1091.66 531.131 1095.3 531.131C1098.95 531.131 1102 534.468 1102 538.709Z" fill="#FEFEFE" stroke="black"/>
<path d="M1057.72 631.911C1057.72 636.152 1054.67 639.489 1051.03 639.489C1047.38 639.489 1044.33 636.152 1044.33 631.911C1044.33 627.67 1047.38 624.334 1051.03 624.334C1054.67 624.334 1057.72 627.67 1057.72 631.911Z" fill="#FEFEFE" stroke="black"/>
<path d="M1102 608.3C1102 612.541 1098.95 615.877 1095.3 615.877C1091.66 615.877 1088.61 612.541 1088.61 608.3C1088.61 604.059 1091.66 600.722 1095.3 600.722C1098.95 600.722 1102 604.059 1102 608.3Z" fill="#FEFEFE" stroke="black"/>
<path d="M1077.65 607.679C1077.65 614.322 1072.86 619.606 1067.08 619.606C1061.29 619.606 1056.51 614.322 1056.51 607.679C1056.51 601.036 1061.29 595.752 1067.08 595.752C1072.86 595.752 1077.65 601.036 1077.65 607.679Z" fill="#578EE1" stroke="black"/>
<path d="M1077.65 538.088C1077.65 544.731 1072.86 550.015 1067.08 550.015C1061.29 550.015 1056.51 544.731 1056.51 538.088C1056.51 531.445 1061.29 526.161 1067.08 526.161C1072.86 526.161 1077.65 531.445 1077.65 538.088Z" fill="#578EE1" stroke="black"/>
<path d="M1053.3 573.504C1053.3 580.491 1048.26 586.053 1042.17 586.053C1036.08 586.053 1031.05 580.491 1031.05 573.504C1031.05 566.518 1036.08 560.956 1042.17 560.956C1048.26 560.956 1053.3 566.518 1053.3 573.504Z" fill="#515151" stroke="black"/>
<path d="M1004.59 573.504C1004.59 580.491 999.558 586.053 993.468 586.053C987.377 586.053 982.345 580.491 982.345 573.504C982.345 566.518 987.377 560.956 993.468 560.956C999.558 560.956 1004.59 566.518 1004.59 573.504Z" fill="#E91010" stroke="black"/>
<path d="M796.434 693.425L769.315 658.629M796.434 693.425L770.422 728.841M796.434 693.425H844.032M769.315 658.629H742.195M769.315 658.629L787.026 635.018M770.422 728.841H742.195M770.422 728.841L787.026 751.831" stroke="black" stroke-width="5"/>
<path d="M779.777 635.639C779.777 639.88 782.827 643.217 786.472 643.217C790.117 643.217 793.167 639.88 793.167 635.639C793.167 631.398 790.117 628.062 786.472 628.062C782.827 628.062 779.777 631.398 779.777 635.639Z" fill="#FEFEFE" stroke="black"/>
<path d="M735.5 659.25C735.5 663.491 738.55 666.828 742.195 666.828C745.84 666.828 748.89 663.491 748.89 659.25C748.89 655.009 745.84 651.673 742.195 651.673C738.55 651.673 735.5 655.009 735.5 659.25Z" fill="#FEFEFE" stroke="black"/>
<path d="M779.777 752.453C779.777 756.694 782.827 760.03 786.472 760.03C790.117 760.03 793.167 756.694 793.167 752.453C793.167 748.212 790.117 744.875 786.472 744.875C782.827 744.875 779.777 748.212 779.777 752.453Z" fill="#FEFEFE" stroke="black"/>
<path d="M735.5 728.841C735.5 733.082 738.55 736.419 742.195 736.419C745.84 736.419 748.89 733.082 748.89 728.841C748.89 724.601 745.84 721.264 742.195 721.264C738.55 721.264 735.5 724.601 735.5 728.841Z" fill="#FEFEFE" stroke="black"/>
<path d="M759.852 728.22C759.852 734.863 764.637 740.147 770.422 740.147C776.206 740.147 780.991 734.863 780.991 728.22C780.991 721.577 776.206 716.293 770.422 716.293C764.637 716.293 759.852 721.577 759.852 728.22Z" fill="#578EE1" stroke="black"/>
<path d="M759.852 658.629C759.852 665.272 764.637 670.556 770.422 670.556C776.206 670.556 780.991 665.272 780.991 658.629C780.991 651.986 776.206 646.702 770.422 646.702C764.637 646.702 759.852 651.986 759.852 658.629Z" fill="#578EE1" stroke="black"/>
<path d="M784.205 694.046C784.205 701.032 789.237 706.594 795.328 706.594C801.418 706.594 806.45 701.032 806.45 694.046C806.45 687.06 801.418 681.498 795.328 681.498C789.237 681.498 784.205 687.06 784.205 694.046Z" fill="#515151" stroke="black"/>
<path d="M832.91 694.046C832.91 701.032 837.942 706.594 844.032 706.594C850.123 706.594 855.155 701.032 855.155 694.046C855.155 687.06 850.123 681.498 844.032 681.498C837.942 681.498 832.91 687.06 832.91 694.046Z" fill="#E91010" stroke="black"/>
<path d="M857.316 572.883L884.435 538.088M857.316 572.883L883.328 608.3M857.316 572.883H809.718M884.435 538.088H911.555M884.435 538.088L866.724 514.476M883.328 608.3H911.555M883.328 608.3L866.724 631.29" stroke="black" stroke-width="5"/>
<path d="M873.973 515.098C873.973 519.339 870.923 522.675 867.278 522.675C863.633 522.675 860.583 519.339 860.583 515.098C860.583 510.857 863.633 507.52 867.278 507.52C870.923 507.52 873.973 510.857 873.973 515.098Z" fill="#FEFEFE" stroke="black"/>
<path d="M918.25 538.709C918.25 542.95 915.2 546.286 911.555 546.286C907.91 546.286 904.86 542.95 904.86 538.709C904.86 534.468 907.91 531.131 911.555 531.131C915.2 531.131 918.25 534.468 918.25 538.709Z" fill="#FEFEFE" stroke="black"/>
<path d="M873.973 631.911C873.973 636.152 870.923 639.489 867.278 639.489C863.633 639.489 860.583 636.152 860.583 631.911C860.583 627.67 863.633 624.334 867.278 624.334C870.923 624.334 873.973 627.67 873.973 631.911Z" fill="#FEFEFE" stroke="black"/>
<path d="M918.25 608.3C918.25 612.541 915.2 615.877 911.555 615.877C907.91 615.877 904.86 612.541 904.86 608.3C904.86 604.059 907.91 600.722 911.555 600.722C915.2 600.722 918.25 604.059 918.25 608.3Z" fill="#FEFEFE" stroke="black"/>
<path d="M893.898 607.679C893.898 614.322 889.113 619.606 883.328 619.606C877.544 619.606 872.759 614.322 872.759 607.679C872.759 601.036 877.544 595.752 883.328 595.752C889.113 595.752 893.898 601.036 893.898 607.679Z" fill="#578EE1" stroke="black"/>
<path d="M893.898 538.088C893.898 544.731 889.113 550.015 883.328 550.015C877.544 550.015 872.759 544.731 872.759 538.088C872.759 531.445 877.544 526.161 883.328 526.161C889.113 526.161 893.898 531.445 893.898 538.088Z" fill="#578EE1" stroke="black"/>
<path d="M869.545 573.504C869.545 580.491 864.513 586.053 858.422 586.053C852.332 586.053 847.3 580.491 847.3 573.504C847.3 566.518 852.332 560.956 858.422 560.956C864.513 560.956 869.545 566.518 869.545 573.504Z" fill="#515151" stroke="black"/>
<path d="M820.84 573.504C820.84 580.491 815.808 586.053 809.718 586.053C803.627 586.053 798.595 580.491 798.595 573.504C798.595 566.518 803.627 560.956 809.718 560.956C815.808 560.956 820.84 566.518 820.84 573.504Z" fill="#E91010" stroke="black"/>
<path d="M796.434 439.914L769.315 405.119M796.434 439.914L770.422 475.331M796.434 439.914H844.032M769.315 405.119H742.195M769.315 405.119L787.026 381.508M770.422 475.331H742.195M770.422 475.331L787.026 498.321" stroke="black" stroke-width="5"/>
<path d="M779.777 382.129C779.777 386.37 782.827 389.707 786.472 389.707C790.117 389.707 793.167 386.37 793.167 382.129C793.167 377.888 790.117 374.552 786.472 374.552C782.827 374.552 779.777 377.888 779.777 382.129Z" fill="#FEFEFE" stroke="black"/>
<path d="M735.5 405.74C735.5 409.981 738.55 413.318 742.195 413.318C745.84 413.318 748.89 409.981 748.89 405.74C748.89 401.499 745.84 398.163 742.195 398.163C738.55 398.163 735.5 401.499 735.5 405.74Z" fill="#FEFEFE" stroke="black"/>
<path d="M779.777 498.943C779.777 503.183 782.827 506.52 786.472 506.52C790.117 506.52 793.167 503.183 793.167 498.943C793.167 494.702 790.117 491.365 786.472 491.365C782.827 491.365 779.777 494.702 779.777 498.943Z" fill="#FEFEFE" stroke="black"/>
<path d="M735.5 475.331C735.5 479.572 738.55 482.909 742.195 482.909C745.84 482.909 748.89 479.572 748.89 475.331C748.89 471.09 745.84 467.754 742.195 467.754C738.55 467.754 735.5 471.09 735.5 475.331Z" fill="#FEFEFE" stroke="black"/>
<path d="M759.852 474.71C759.852 481.353 764.637 486.637 770.422 486.637C776.206 486.637 780.991 481.353 780.991 474.71C780.991 468.067 776.206 462.783 770.422 462.783C764.637 462.783 759.852 468.067 759.852 474.71Z" fill="#578EE1" stroke="black"/>
<path d="M759.852 405.119C759.852 411.762 764.637 417.046 770.422 417.046C776.206 417.046 780.991 411.762 780.991 405.119C780.991 398.476 776.206 393.192 770.422 393.192C764.637 393.192 759.852 398.476 759.852 405.119Z" fill="#578EE1" stroke="black"/>
<path d="M784.205 440.536C784.205 447.522 789.237 453.084 795.328 453.084C801.418 453.084 806.45 447.522 806.45 440.536C806.45 433.55 801.418 427.987 795.328 427.987C789.237 427.987 784.205 433.55 784.205 440.536Z" fill="#515151" stroke="black"/>
<path d="M832.91 440.536C832.91 447.522 837.942 453.084 844.032 453.084C850.123 453.084 855.155 447.522 855.155 440.536C855.155 433.55 850.123 427.987 844.032 427.987C837.942 427.987 832.91 433.55 832.91 440.536Z" fill="#E91010" stroke="black"/>
<path d="M857.316 319.373L884.435 284.577M857.316 319.373L883.328 354.79M857.316 319.373H809.718M884.435 284.577H911.555M884.435 284.577L866.724 260.966M883.328 354.79H911.555M883.328 354.79L866.724 377.78" stroke="black" stroke-width="5"/>
<path d="M873.973 261.588C873.973 265.829 870.923 269.165 867.278 269.165C863.633 269.165 860.583 265.829 860.583 261.588C860.583 257.347 863.633 254.01 867.278 254.01C870.923 254.01 873.973 257.347 873.973 261.588Z" fill="#FEFEFE" stroke="black"/>
<path d="M918.25 285.199C918.25 289.44 915.2 292.776 911.555 292.776C907.91 292.776 904.86 289.44 904.86 285.199C904.86 280.958 907.91 277.621 911.555 277.621C915.2 277.621 918.25 280.958 918.25 285.199Z" fill="#FEFEFE" stroke="black"/>
<path d="M873.973 378.401C873.973 382.642 870.923 385.979 867.278 385.979C863.633 385.979 860.583 382.642 860.583 378.401C860.583 374.16 863.633 370.824 867.278 370.824C870.923 370.824 873.973 374.16 873.973 378.401Z" fill="#FEFEFE" stroke="black"/>
<path d="M918.25 354.79C918.25 359.031 915.2 362.367 911.555 362.367C907.91 362.367 904.86 359.031 904.86 354.79C904.86 350.549 907.91 347.212 911.555 347.212C915.2 347.212 918.25 350.549 918.25 354.79Z" fill="#FEFEFE" stroke="black"/>
<path d="M893.898 354.169C893.898 360.812 889.113 366.096 883.328 366.096C877.544 366.096 872.759 360.812 872.759 354.169C872.759 347.526 877.544 342.242 883.328 342.242C889.113 342.242 893.898 347.526 893.898 354.169Z" fill="#578EE1" stroke="black"/>
<path d="M893.898 284.578C893.898 291.221 889.113 296.505 883.328 296.505C877.544 296.505 872.759 291.221 872.759 284.578C872.759 277.934 877.544 272.651 883.328 272.651C889.113 272.651 893.898 277.934 893.898 284.578Z" fill="#578EE1" stroke="black"/>
<path d="M869.545 319.994C869.545 326.981 864.513 332.543 858.422 332.543C852.332 332.543 847.3 326.981 847.3 319.994C847.3 313.008 852.332 307.446 858.422 307.446C864.513 307.446 869.545 313.008 869.545 319.994Z" fill="#515151" stroke="black"/>
<path d="M820.84 319.994C820.84 326.981 815.808 332.543 809.718 332.543C803.627 332.543 798.595 326.981 798.595 319.994C798.595 313.008 803.627 307.446 809.718 307.446C815.808 307.446 820.84 313.008 820.84 319.994Z" fill="#E91010" stroke="black"/>
<path d="M980.185 439.914L953.065 405.119M980.185 439.914L954.172 475.331M980.185 439.914H1027.78M953.065 405.119H925.945M953.065 405.119L970.776 381.508M954.172 475.331H925.945M954.172 475.331L970.776 498.321" stroke="black" stroke-width="5"/>
<path d="M963.527 382.129C963.527 386.37 966.578 389.707 970.222 389.707C973.867 389.707 976.917 386.37 976.917 382.129C976.917 377.888 973.867 374.552 970.222 374.552C966.578 374.552 963.527 377.888 963.527 382.129Z" fill="#FEFEFE" stroke="black"/>
<path d="M919.25 405.74C919.25 409.981 922.3 413.318 925.945 413.318C929.59 413.318 932.64 409.981 932.64 405.74C932.64 401.499 929.59 398.163 925.945 398.163C922.3 398.163 919.25 401.499 919.25 405.74Z" fill="#FEFEFE" stroke="black"/>
<path d="M963.527 498.943C963.527 503.183 966.578 506.52 970.222 506.52C973.867 506.52 976.917 503.183 976.917 498.943C976.917 494.702 973.867 491.365 970.222 491.365C966.578 491.365 963.527 494.702 963.527 498.943Z" fill="#FEFEFE" stroke="black"/>
<path d="M919.25 475.331C919.25 479.572 922.3 482.909 925.945 482.909C929.59 482.909 932.64 479.572 932.64 475.331C932.64 471.09 929.59 467.754 925.945 467.754C922.3 467.754 919.25 471.09 919.25 475.331Z" fill="#FEFEFE" stroke="black"/>
<path d="M943.603 474.71C943.603 481.353 948.387 486.637 954.172 486.637C959.956 486.637 964.741 481.353 964.741 474.71C964.741 468.067 959.956 462.783 954.172 462.783C948.387 462.783 943.603 468.067 943.603 474.71Z" fill="#578EE1" stroke="black"/>
<path d="M943.603 405.119C943.603 411.762 948.387 417.046 954.172 417.046C959.956 417.046 964.741 411.762 964.741 405.119C964.741 398.476 959.956 393.192 954.172 393.192C948.387 393.192 943.603 398.476 943.603 405.119Z" fill="#578EE1" stroke="black"/>
<path d="M967.955 440.536C967.955 447.522 972.988 453.084 979.078 453.084C985.168 453.084 990.2 447.522 990.2 440.536C990.2 433.55 985.168 427.987 979.078 427.987C972.988 427.987 967.955 433.55 967.955 440.536Z" fill="#515151" stroke="black"/>
<path d="M1016.66 440.536C1016.66 447.522 1021.69 453.084 1027.78 453.084C1033.87 453.084 1038.91 447.522 1038.91 440.536C1038.91 433.55 1033.87 427.987 1027.78 427.987C1021.69 427.987 1016.66 433.55 1016.66 440.536Z" fill="#E91010" stroke="black"/>
<path d="M1041.07 319.373L1068.19 284.577M1041.07 319.373L1067.08 354.79M1041.07 319.373H993.468M1068.19 284.577H1095.31M1068.19 284.577L1050.47 260.966M1067.08 354.79H1095.31M1067.08 354.79L1050.47 377.78" stroke="black" stroke-width="5"/>
<path d="M1057.72 261.588C1057.72 265.829 1054.67 269.165 1051.03 269.165C1047.38 269.165 1044.33 265.829 1044.33 261.588C1044.33 257.347 1047.38 254.01 1051.03 254.01C1054.67 254.01 1057.72 257.347 1057.72 261.588Z" fill="#FEFEFE" stroke="black"/>
<path d="M1102 285.199C1102 289.44 1098.95 292.776 1095.3 292.776C1091.66 292.776 1088.61 289.44 1088.61 285.199C1088.61 280.958 1091.66 277.621 1095.3 277.621C1098.95 277.621 1102 280.958 1102 285.199Z" fill="#FEFEFE" stroke="black"/>
<path d="M1057.72 378.401C1057.72 382.642 1054.67 385.979 1051.03 385.979C1047.38 385.979 1044.33 382.642 1044.33 378.401C1044.33 374.16 1047.38 370.824 1051.03 370.824C1054.67 370.824 1057.72 374.16 1057.72 378.401Z" fill="#FEFEFE" stroke="black"/>
<path d="M1102 354.79C1102 359.031 1098.95 362.367 1095.3 362.367C1091.66 362.367 1088.61 359.031 1088.61 354.79C1088.61 350.549 1091.66 347.212 1095.3 347.212C1098.95 347.212 1102 350.549 1102 354.79Z" fill="#FEFEFE" stroke="black"/>
<path d="M1077.65 354.169C1077.65 360.812 1072.86 366.096 1067.08 366.096C1061.29 366.096 1056.51 360.812 1056.51 354.169C1056.51 347.526 1061.29 342.242 1067.08 342.242C1072.86 342.242 1077.65 347.526 1077.65 354.169Z" fill="#578EE1" stroke="black"/>
<path d="M1077.65 284.578C1077.65 291.221 1072.86 296.505 1067.08 296.505C1061.29 296.505 1056.51 291.221 1056.51 284.578C1056.51 277.934 1061.29 272.651 1067.08 272.651C1072.86 272.651 1077.65 277.934 1077.65 284.578Z" fill="#578EE1" stroke="black"/>
<path d="M1053.3 319.994C1053.3 326.981 1048.26 332.543 1042.17 332.543C1036.08 332.543 1031.05 326.981 1031.05 319.994C1031.05 313.008 1036.08 307.446 1042.17 307.446C1048.26 307.446 1053.3 313.008 1053.3 319.994Z" fill="#515151" stroke="black"/>
<path d="M1004.59 319.994C1004.59 326.981 999.558 332.543 993.468 332.543C987.377 332.543 982.345 326.981 982.345 319.994C982.345 313.008 987.377 307.446 993.468 307.446C999.558 307.446 1004.59 313.008 1004.59 319.994Z" fill="#E91010" stroke="black"/>
<path d="M796.434 186.404L769.315 151.609M796.434 186.404L770.422 221.821M796.434 186.404H844.032M769.315 151.609H742.195M769.315 151.609L787.026 127.998M770.422 221.821H742.195M770.422 221.821L787.026 244.811" stroke="black" stroke-width="5"/>
<path d="M779.777 128.619C779.777 132.86 782.827 136.196 786.472 136.196C790.117 136.196 793.167 132.86 793.167 128.619C793.167 124.378 790.117 121.041 786.472 121.041C782.827 121.041 779.777 124.378 779.777 128.619Z" fill="#FEFEFE" stroke="black"/>
<path d="M735.5 152.23C735.5 156.471 738.55 159.808 742.195 159.808C745.84 159.808 748.89 156.471 748.89 152.23C748.89 147.989 745.84 144.653 742.195 144.653C738.55 144.653 735.5 147.989 735.5 152.23Z" fill="#FEFEFE" stroke="black"/>
<path d="M779.777 245.432C779.777 249.673 782.827 253.01 786.472 253.01C790.117 253.01 793.167 249.673 793.167 245.432C793.167 241.192 790.117 237.855 786.472 237.855C782.827 237.855 779.777 241.192 779.777 245.432Z" fill="#FEFEFE" stroke="black"/>
<path d="M735.5 221.821C735.5 226.062 738.55 229.399 742.195 229.399C745.84 229.399 748.89 226.062 748.89 221.821C748.89 217.58 745.84 214.244 742.195 214.244C738.55 214.244 735.5 217.58 735.5 221.821Z" fill="#FEFEFE" stroke="black"/>
<path d="M759.852 221.2C759.852 227.843 764.637 233.127 770.422 233.127C776.206 233.127 780.991 227.843 780.991 221.2C780.991 214.557 776.206 209.273 770.422 209.273C764.637 209.273 759.852 214.557 759.852 221.2Z" fill="#578EE1" stroke="black"/>
<path d="M759.852 151.609C759.852 158.252 764.637 163.536 770.422 163.536C776.206 163.536 780.991 158.252 780.991 151.609C780.991 144.966 776.206 139.682 770.422 139.682C764.637 139.682 759.852 144.966 759.852 151.609Z" fill="#578EE1" stroke="black"/>
<path d="M784.205 187.026C784.205 194.012 789.237 199.574 795.328 199.574C801.418 199.574 806.45 194.012 806.45 187.026C806.45 180.04 801.418 174.477 795.328 174.477C789.237 174.477 784.205 180.04 784.205 187.026Z" fill="#515151" stroke="black"/>
<path d="M832.91 187.026C832.91 194.012 837.942 199.574 844.032 199.574C850.123 199.574 855.155 194.012 855.155 187.026C855.155 180.04 850.123 174.477 844.032 174.477C837.942 174.477 832.91 180.04 832.91 187.026Z" fill="#E91010" stroke="black"/>
<path d="M857.316 65.8629L884.435 31.0674M857.316 65.8629L883.328 101.28M857.316 65.8629H809.718M884.435 31.0674H911.555M884.435 31.0674L866.724 7.45618M883.328 101.28H911.555M883.328 101.28L866.724 124.27" stroke="black" stroke-width="5"/>
<path d="M873.973 8.07753C873.973 12.3184 870.923 15.6551 867.278 15.6551C863.633 15.6551 860.583 12.3184 860.583 8.07753C860.583 3.83662 863.633 0.5 867.278 0.5C870.923 0.5 873.973 3.83662 873.973 8.07753Z" fill="#FEFEFE" stroke="black"/>
<path d="M918.25 31.6888C918.25 35.9297 915.2 39.2663 911.555 39.2663C907.91 39.2663 904.86 35.9297 904.86 31.6888C904.86 27.4479 907.91 24.1113 911.555 24.1113C915.2 24.1113 918.25 27.4479 918.25 31.6888Z" fill="#FEFEFE" stroke="black"/>
<path d="M873.973 124.891C873.973 129.132 870.923 132.469 867.278 132.469C863.633 132.469 860.583 129.132 860.583 124.891C860.583 120.65 863.633 117.313 867.278 117.313C870.923 117.313 873.973 120.65 873.973 124.891Z" fill="#FEFEFE" stroke="black"/>
<path d="M918.25 101.28C918.25 105.521 915.2 108.857 911.555 108.857C907.91 108.857 904.86 105.521 904.86 101.28C904.86 97.0389 907.91 93.7023 911.555 93.7023C915.2 93.7023 918.25 97.0389 918.25 101.28Z" fill="#FEFEFE" stroke="black"/>
<path d="M893.898 100.658C893.898 107.302 889.113 112.585 883.328 112.585C877.544 112.585 872.759 107.302 872.759 100.658C872.759 94.0154 877.544 88.7315 883.328 88.7315C889.113 88.7315 893.898 94.0154 893.898 100.658Z" fill="#578EE1" stroke="black"/>
<path d="M893.898 31.0675C893.898 37.7105 889.113 42.9944 883.328 42.9944C877.544 42.9944 872.759 37.7105 872.759 31.0675C872.759 24.4244 877.544 19.1405 883.328 19.1405C889.113 19.1405 893.898 24.4244 893.898 31.0675Z" fill="#578EE1" stroke="black"/>
<path d="M869.545 66.4843C869.545 73.4705 864.513 79.0326 858.422 79.0326C852.332 79.0326 847.3 73.4705 847.3 66.4843C847.3 59.4981 852.332 53.936 858.422 53.936C864.513 53.936 869.545 59.4981 869.545 66.4843Z" fill="#515151" stroke="black"/>
<path d="M820.84 66.4843C820.84 73.4705 815.808 79.0326 809.718 79.0326C803.627 79.0326 798.595 73.4705 798.595 66.4843C798.595 59.4981 803.627 53.936 809.718 53.936C815.808 53.936 820.84 59.4981 820.84 66.4843Z" fill="#E91010" stroke="black"/>
<path d="M980.185 186.404L953.065 151.609M980.185 186.404L954.172 221.821M980.185 186.404H1027.78M953.065 151.609H925.945M953.065 151.609L970.776 127.998M954.172 221.821H925.945M954.172 221.821L970.776 244.811" stroke="black" stroke-width="5"/>
<path d="M963.527 128.619C963.527 132.86 966.578 136.196 970.222 136.196C973.867 136.196 976.917 132.86 976.917 128.619C976.917 124.378 973.867 121.041 970.222 121.041C966.578 121.041 963.527 124.378 963.527 128.619Z" fill="#FEFEFE" stroke="black"/>
<path d="M919.25 152.23C919.25 156.471 922.3 159.808 925.945 159.808C929.59 159.808 932.64 156.471 932.64 152.23C932.64 147.989 929.59 144.653 925.945 144.653C922.3 144.653 919.25 147.989 919.25 152.23Z" fill="#FEFEFE" stroke="black"/>
<path d="M963.527 245.432C963.527 249.673 966.578 253.01 970.222 253.01C973.867 253.01 976.917 249.673 976.917 245.432C976.917 241.192 973.867 237.855 970.222 237.855C966.578 237.855 963.527 241.192 963.527 245.432Z" fill="#FEFEFE" stroke="black"/>
<path d="M919.25 221.821C919.25 226.062 922.3 229.399 925.945 229.399C929.59 229.399 932.64 226.062 932.64 221.821C932.64 217.58 929.59 214.244 925.945 214.244C922.3 214.244 919.25 217.58 919.25 221.821Z" fill="#FEFEFE" stroke="black"/>
<path d="M943.603 221.2C943.603 227.843 948.387 233.127 954.172 233.127C959.956 233.127 964.741 227.843 964.741 221.2C964.741 214.557 959.956 209.273 954.172 209.273C948.387 209.273 943.603 214.557 943.603 221.2Z" fill="#578EE1" stroke="black"/>
<path d="M943.603 151.609C943.603 158.252 948.387 163.536 954.172 163.536C959.956 163.536 964.741 158.252 964.741 151.609C964.741 144.966 959.956 139.682 954.172 139.682C948.387 139.682 943.603 144.966 943.603 151.609Z" fill="#578EE1" stroke="black"/>
<path d="M967.955 187.026C967.955 194.012 972.988 199.574 979.078 199.574C985.168 199.574 990.2 194.012 990.2 187.026C990.2 180.04 985.168 174.477 979.078 174.477C972.988 174.477 967.955 180.04 967.955 187.026Z" fill="#515151" stroke="black"/>
<path d="M1016.66 187.026C1016.66 194.012 1021.69 199.574 1027.78 199.574C1033.87 199.574 1038.91 194.012 1038.91 187.026C1038.91 180.04 1033.87 174.477 1027.78 174.477C1021.69 174.477 1016.66 180.04 1016.66 187.026Z" fill="#E91010" stroke="black"/>
<path d="M1041.07 65.8629L1068.19 31.0674M1041.07 65.8629L1067.08 101.28M1041.07 65.8629H993.468M1068.19 31.0674H1095.31M1068.19 31.0674L1050.47 7.45618M1067.08 101.28H1095.31M1067.08 101.28L1050.47 124.27" stroke="black" stroke-width="5"/>
<path d="M1057.72 8.07753C1057.72 12.3184 1054.67 15.6551 1051.03 15.6551C1047.38 15.6551 1044.33 12.3184 1044.33 8.07753C1044.33 3.83662 1047.38 0.5 1051.03 0.5C1054.67 0.5 1057.72 3.83662 1057.72 8.07753Z" fill="#FEFEFE" stroke="black"/>
<path d="M1102 31.6888C1102 35.9297 1098.95 39.2663 1095.3 39.2663C1091.66 39.2663 1088.61 35.9297 1088.61 31.6888C1088.61 27.4479 1091.66 24.1113 1095.3 24.1113C1098.95 24.1113 1102 27.4479 1102 31.6888Z" fill="#FEFEFE" stroke="black"/>
<path d="M1057.72 124.891C1057.72 129.132 1054.67 132.469 1051.03 132.469C1047.38 132.469 1044.33 129.132 1044.33 124.891C1044.33 120.65 1047.38 117.313 1051.03 117.313C1054.67 117.313 1057.72 120.65 1057.72 124.891Z" fill="#FEFEFE" stroke="black"/>
<path d="M1102 101.28C1102 105.521 1098.95 108.857 1095.3 108.857C1091.66 108.857 1088.61 105.521 1088.61 101.28C1088.61 97.0389 1091.66 93.7023 1095.3 93.7023C1098.95 93.7023 1102 97.0389 1102 101.28Z" fill="#FEFEFE" stroke="black"/>
<path d="M1077.65 100.658C1077.65 107.302 1072.86 112.585 1067.08 112.585C1061.29 112.585 1056.51 107.302 1056.51 100.658C1056.51 94.0154 1061.29 88.7315 1067.08 88.7315C1072.86 88.7315 1077.65 94.0154 1077.65 100.658Z" fill="#578EE1" stroke="black"/>
<path d="M1077.65 31.0675C1077.65 37.7105 1072.86 42.9944 1067.08 42.9944C1061.29 42.9944 1056.51 37.7105 1056.51 31.0675C1056.51 24.4244 1061.29 19.1405 1067.08 19.1405C1072.86 19.1405 1077.65 24.4244 1077.65 31.0675Z" fill="#578EE1" stroke="black"/>
<path d="M1053.3 66.4843C1053.3 73.4705 1048.26 79.0326 1042.17 79.0326C1036.08 79.0326 1031.05 73.4705 1031.05 66.4843C1031.05 59.4981 1036.08 53.936 1042.17 53.936C1048.26 53.936 1053.3 59.4981 1053.3 66.4843Z" fill="#515151" stroke="black"/>
<path d="M1004.59 66.4843C1004.59 73.4705 999.558 79.0326 993.468 79.0326C987.377 79.0326 982.345 73.4705 982.345 66.4843C982.345 59.4981 987.377 53.936 993.468 53.936C999.558 53.936 1004.59 59.4981 1004.59 66.4843Z" fill="#E91010" stroke="black"/>
</svg>
